<svg width="1091" height="567" viewBox="0 0 1091 567" fill="none" xmlns="http://www.w3.org/2000/svg">
<path d="M98.0305 526.52H612.18C618.941 526.52 622.915 523.201 631.576 535.535L648.801 557.414C652.71 562.376 650.367 566.43 643.607 566.43H129.446C122.686 566.43 117.567 565.641 112.513 557.025L94.6395 530.087C90.7409 525.114 91.2701 526.52 98.0305 526.52Z" fill="#5F5F5F"/>
<path d="M599.99 408H611.01C618.154 408 624 402.172 624 395.048V303.952C624 296.828 616.645 293 609.5 293L599.99 291C592.846 291 587 296.828 587 303.952V395.048C587 402.172 592.846 408 599.99 408Z" fill="#3E3E3E"/>
<path d="M595.97 288.743H610.809C617.936 288.743 623.768 282.906 623.768 275.771V181.757C623.768 174.622 617.936 168.785 610.809 168.785H595.97C588.843 168.785 583.011 174.622 583.011 181.757V275.771C583.011 282.906 588.843 288.743 595.97 288.743Z" fill="#3E3E3E"/>
<path d="M599.815 535.708H608.671C615.798 535.708 621.63 529.871 621.63 522.736V429.295C621.63 422.16 615.798 416.323 608.671 416.323H599.815C592.687 416.323 586.856 422.16 586.856 429.295V522.736C586.856 529.871 592.687 535.708 599.815 535.708Z" fill="#3E3E3E"/>
<path d="M561 484.15V466.842C561 459.803 555.197 460.091 548.099 460.091H375.901C368.803 460.091 363 458.811 363 465.85V484.15C363 491.189 368.803 489.909 375.901 489.909H548.099C555.197 489.909 561 491.189 561 484.15Z" fill="#3E3E3E"/>
<path d="M561.002 361.332V343.788C561.002 336.653 555.192 336.945 548.086 336.945H375.684C368.578 336.945 362.768 335.648 362.768 342.782V361.332C362.768 368.467 368.578 367.17 375.684 367.17H548.086C555.192 367.17 561.002 368.467 561.002 361.332Z" fill="#3E3E3E"/>
<path d="M563.388 243.633V226.088C563.388 218.954 557.578 219.246 550.472 219.246H378.07C370.964 219.246 365.154 217.948 365.154 225.083V243.633C365.154 250.768 370.964 249.47 378.07 249.47H550.472C557.578 249.47 563.388 250.768 563.388 243.633Z" fill="#3E3E3E"/>
<path d="M619 399.265V392.735C619 387.931 613.202 384 606.116 384H107.884C100.798 384 95 387.931 95 392.735V399.265C98.4787 400.51 101.414 404.5 108.5 404.5L606.116 408C613.202 408 619 404.069 619 399.265Z" fill="#3E3E3E"/>
<path d="M621.77 521.169V517.893C621.77 512.596 617.44 508.272 612.159 508.272H104.316C99.0241 508.272 94.7043 512.607 94.7043 517.893V521.169C94.7043 526.465 99.0349 530.789 104.316 530.789H612.159C617.45 530.789 621.77 526.465 621.77 521.169Z" fill="#3E3E3E"/>
<path d="M621.77 276.885V270.042C621.77 265.275 617.872 261.372 613.109 261.372H103.365C98.6029 261.372 94.7043 265.275 94.7043 270.042V276.885C94.7043 281.652 98.6029 285.554 103.365 285.554H613.109C617.872 285.554 621.77 281.652 621.77 276.885Z" fill="#3E3E3E"/>
<path d="M18.212 18.1367L50.2971 2.63522C50.7831 2.3974 51.2691 3.08924 50.9667 3.5865L26.5384 44.1131C26.2144 44.6536 26.7868 45.3671 27.2728 45.0212L58.2995 23.2499" stroke="#A3AAC6" stroke-width="4" stroke-miterlimit="10" stroke-linecap="round"/>
<path d="M45.8585 42.5997L65.0059 36.5353C65.2975 36.438 65.5243 36.8272 65.3191 37.065L48.7204 56.4257C48.5044 56.6851 48.7744 57.0851 49.066 56.9338L68.0513 47.5831" stroke="#A3AAC6" stroke-width="3" stroke-miterlimit="10" stroke-linecap="round"/>
<path d="M81.1294 40.5566L92.0477 38.5136C92.2096 38.4811 92.1448 38.9351 91.9613 39.1405L76.4857 55.8636C76.2805 56.0906 76.2265 56.577 76.4209 56.4797L88.6674 50.9126" stroke="#A3AAC6" stroke-width="2" stroke-miterlimit="10" stroke-linecap="round"/>
<path d="M159.965 53.5503C161.142 46.7508 164.091 35.2382 172.287 23.8985C179.285 14.2235 183.584 10.3428 193.314 4.41888C195.085 3.33788 200.161 1.59748 202.958 2.08393C208.962 3.13249 211.997 11.8778 213.66 16.6558C217.548 27.8333 216.759 37.7569 216.209 43.8861C215.723 49.3128 214.524 57.0743 211.316 66.0682L159.965 53.5503Z" fill="#9FAFFF"/>
<path d="M99.6073 150.786C93.1493 151.208 81.9935 151.002 69.7793 145.749C59.3579 141.262 54.8329 138.041 47.2085 130.096C45.8154 128.647 43.0616 124.204 42.8672 121.415C42.4352 115.448 49.7032 110.551 53.6666 107.892C62.9541 101.644 72.1552 100.141 77.8681 99.2765C82.9114 98.509 90.255 97.8928 99.1862 98.909L99.6073 150.786Z" fill="#9FAFFF"/>
<path d="M171.186 246.692C181.176 246.692 189.275 238.586 189.275 228.586C189.275 218.585 181.176 210.479 171.186 210.479C161.196 210.479 153.097 218.585 153.097 228.586C153.097 238.586 161.196 246.692 171.186 246.692Z" fill="#E298CD" stroke="#4B63B9" stroke-width="9" stroke-miterlimit="10"/>
<path d="M606.813 410H109.111C100.957 410 94.2832 401.805 94.2832 393.643C94.2832 387.19 94.2832 380.725 94.2832 374.272C94.2832 352.803 94.2832 331.324 94.2832 309.855C94.2832 308.86 94.402 303.618 98.6354 299.38C101.324 296.688 105.029 295.024 109.1 295.024H606.802C614.956 295.024 621.63 301.704 621.63 309.866V393.654C621.641 401.805 614.967 410 606.813 410Z" stroke="#4B63B9" stroke-width="9" stroke-miterlimit="10"/>
<path d="M171.186 369.861C181.176 369.861 189.275 361.755 189.275 351.754C189.275 341.754 181.176 333.648 171.186 333.648C161.196 333.648 153.097 341.754 153.097 351.754C153.097 361.755 161.196 369.861 171.186 369.861Z" fill="#4CD874" stroke="#4B63B9" stroke-width="9" stroke-miterlimit="10"/>
<path d="M606.813 531.643H109.1C100.946 531.643 94.2723 524.963 94.2723 516.801V433.013C94.2723 424.852 100.946 418.171 109.1 418.171H606.802C614.956 418.171 621.63 424.852 621.63 433.013V516.801C621.63 524.974 614.966 531.643 606.813 531.643Z" stroke="#4B63B9" stroke-width="9" stroke-miterlimit="10"/>
<path d="M171.186 493.019C181.176 493.019 189.275 484.913 189.275 474.913C189.275 464.913 181.176 456.806 171.186 456.806C161.196 456.806 153.097 464.913 153.097 474.913C153.097 484.913 161.196 493.019 171.186 493.019Z" fill="#DADD66" stroke="#4B63B9" stroke-width="9" stroke-miterlimit="10"/>
<path d="M370.273 223.883H558.259" stroke="#4B63B9" stroke-width="9" stroke-miterlimit="10" stroke-linecap="round"/>
<path d="M370.273 244.833H558.259" stroke="#4B63B9" stroke-width="9" stroke-miterlimit="10" stroke-linecap="round"/>
<path d="M367.714 341.269H555.699" stroke="#4B63B9" stroke-width="9" stroke-miterlimit="10" stroke-linecap="round"/>
<path d="M367.714 362.229H555.699" stroke="#4B63B9" stroke-width="9" stroke-miterlimit="10" stroke-linecap="round"/>
<path d="M367.714 464.438H555.699" stroke="#4B63B9" stroke-width="9" stroke-miterlimit="10" stroke-linecap="round"/>
<path d="M171.186 172.99L239.687 98.0117C246.285 92.25 255.454 84.8127 267.031 77.062C281.912 67.0952 313.069 48.3507 355.899 38.146C379.269 32.5789 426.895 21.8338 482.782 38.5784C501.346 44.1348 549.328 58.512 573.778 100.163C579.642 110.151 592.536 132.106 584.026 152.764C580.516 161.293 574.458 166.925 569.933 170.298L220.464 173.714" fill="#9FAFFF"/>
<path d="M607.154 287H108.846C100.682 287 94 280.229 94 271.958V187.042C94 178.771 100.682 172 108.846 172H607.154C615.318 172 622 178.771 622 187.042V271.958C622 280.24 615.318 287 607.154 287Z" stroke="#4B63B9" stroke-width="9" stroke-miterlimit="10"/>
<path d="M586.067 140.971C587.093 132.96 586.165 130.355 585.905 129.609C585.862 129.49 585.97 129.35 586.1 129.328C596.521 127.588 618.293 135.782 624.891 142.116C629.211 146.267 638.92 158.548 640.334 175.93C641.512 190.405 636.792 202.933 616.5 227.872C603.336 244.055 589.674 253.611 579.285 264.129C559.598 284.041 553.626 292.3 544.619 306.688C536.174 320.189 535.116 330.945 534.889 344.069C534.576 362.813 550.008 376.412 565.127 383.082C586.24 392.4 605.388 387.503 612.029 397.308C615.733 402.767 615.107 408.096 608.66 410.453C586.694 418.484 561.898 409.761 559.123 408.658C552.481 406.031 532.427 402.864 520.115 388C500.169 363.905 507.242 341.258 508.992 333.151C519.413 284.679 565.019 251.849 572.536 242.714C579.426 234.326 594.415 218.889 607.115 203.874C618.671 190.21 618.617 180.632 611.338 167.866C601.014 149.77 581.434 157.953 581.434 157.953C585.063 148.797 585.322 146.808 586.067 140.971Z" fill="#6F8EDD"/>
<path d="M367.714 485.388H555.699" stroke="#4B63B9" stroke-width="9" stroke-miterlimit="10" stroke-linecap="round"/>
<path d="M94.2832 379.05C46.2689 379.05 7.33704 341.431 7.33704 295.013C7.33704 248.595 46.2581 210.976 94.2832 210.976" stroke="#4B63B9" stroke-width="8" stroke-miterlimit="10" stroke-linecap="round"/>
<path d="M90.9462 503.635C42.9211 503.635 4 466.016 4 419.598C4 373.18 42.9211 335.561 90.9462 335.561" stroke="#4B63B9" stroke-width="8" stroke-miterlimit="10" stroke-linecap="round"/>
<path d="M176.665 184.656C219.798 177.927 249.92 141.354 243.943 102.969C237.967 64.5829 198.155 38.9202 155.021 45.6493C111.887 52.3785 81.7658 88.9513 87.7425 127.337C93.7193 165.723 133.531 191.386 176.665 184.656Z" fill="#9FAFFF"/>
<path d="M159.944 93.3093C166.121 95.2227 172.871 93.5256 177.417 88.9313C181.953 84.3371 183.584 77.5808 181.618 71.4191" stroke="#333333" stroke-width="2" stroke-miterlimit="10" stroke-linecap="round"/>
<path d="M171.639 131.209L169.75 124.842C169.026 122.41 171.229 120.118 173.691 120.734L180.257 122.399C182.72 123.026 183.562 126.085 181.769 127.891L177.093 132.593C175.344 134.355 172.341 133.598 171.639 131.209Z" fill="#333333" stroke="#333333" stroke-width="2" stroke-miterlimit="10" stroke-linecap="round"/>
<path d="M179.609 130.063C180.43 130.842 180.419 130.766 182.093 131.89C185.387 134.095 189.08 136.571 193.206 135.901C197.083 135.263 199.945 131.501 200.96 130.02" stroke="#333333" stroke-width="2" stroke-miterlimit="10" stroke-linecap="round"/>
<path d="M179.372 130.377C180.387 130.874 180.117 130.69 181.748 131.869C184.966 134.182 188.573 136.787 189.383 140.895C190.15 144.754 186.597 148.505 185.56 149.975" stroke="#333333" stroke-width="2" stroke-miterlimit="10" stroke-linecap="round"/>
<path d="M120.31 135.706C126.487 137.62 133.237 135.922 137.783 131.328C142.319 126.734 143.95 119.978 141.984 113.816" stroke="#333333" stroke-width="2" stroke-miterlimit="10" stroke-linecap="round"/>
<path d="M113.279 102.509L106.627 117.308" stroke="#98AFEA" stroke-width="5" stroke-miterlimit="10" stroke-linecap="round"/>
<path d="M162.924 60.1227L148.885 68.241" stroke="#98AFEA" stroke-width="5" stroke-miterlimit="10" stroke-linecap="round"/>
<path d="M702.485 220.185C699.527 220.123 696.922 219.414 694.672 218.06C692.443 216.706 690.704 214.748 689.454 212.185C688.204 209.602 687.495 206.675 687.329 203.404C687.183 200.8 687.412 197.758 688.016 194.279C688.641 190.8 689.735 187.633 691.297 184.779C692.881 181.904 694.766 179.56 696.954 177.748C700.558 174.789 704.724 173.352 709.454 173.435C713.954 173.518 717.537 175.07 720.204 178.091C722.891 181.112 724.36 185.195 724.61 190.341C724.735 192.925 724.495 195.893 723.891 199.248C723.308 202.581 722.287 205.654 720.829 208.466C719.391 211.258 717.599 213.591 715.454 215.466C711.745 218.716 707.422 220.289 702.485 220.185ZM716.704 195.591L716.985 192.279C717.11 190.008 716.912 187.914 716.391 185.998C715.87 184.06 714.985 182.591 713.735 181.591C712.506 180.57 710.943 180.029 709.047 179.966C706.422 179.883 704.089 180.623 702.047 182.185C700.027 183.748 698.381 186.123 697.11 189.31C695.86 192.498 695.131 196.498 694.922 201.31C694.714 205.123 695.297 208.123 696.672 210.31C698.047 212.498 700.11 213.633 702.86 213.716C706.464 213.82 709.433 212.466 711.766 209.654C714.12 206.841 715.662 202.883 716.391 197.779L716.704 195.591Z" fill="white"/>
<path d="M743.922 174.06L737.141 213.248H750.547L757.329 174.06H765.047L758.235 213.248H771.547L778.36 174.06H786.047L778.141 219.56H728.297L736.172 174.06H743.922Z" fill="white"/>
<path d="M822.235 174.06H830.204L822.297 219.56H814.579L820.141 187.623L795.485 219.56H787.547L795.454 174.06H803.172L797.61 206.029L822.235 174.06Z" fill="white"/>
<path d="M866.485 180.435H846.172L844.266 191.466L852.204 191.498C856.933 191.518 860.61 192.779 863.235 195.279C865.881 197.758 867.027 201.039 866.672 205.123C866.339 209.456 864.537 212.945 861.266 215.591C858.016 218.237 853.849 219.56 848.766 219.56H831.672L839.547 174.06H867.61L866.485 180.435ZM843.172 197.81L840.485 213.248L849.047 213.31C851.735 213.268 853.985 212.498 855.797 210.998C857.61 209.498 858.672 207.508 858.985 205.029C859.277 202.841 858.839 201.123 857.672 199.873C856.506 198.602 854.808 197.925 852.579 197.841L843.172 197.81Z" fill="white"/>
<path d="M887.891 200.06H882.454L879.079 219.56H871.391L879.266 174.06H886.954L883.641 193.185H887.547L903.86 174.06H913.797L894.547 196.216L906.735 219.56H897.985L887.891 200.06Z" fill="white"/>
<path d="M938.172 208.966H921.141L915.704 219.56H907.391L931.954 174.06H938.891L947.704 219.56H939.954L938.172 208.966ZM924.391 202.591H937.141L934.047 183.779L924.391 202.591Z" fill="white"/>
<path d="M973.516 196.904L979.485 174.06H1003.3L1002.27 180.623H984.735L981.516 191.529C983.641 190.32 985.954 189.716 988.454 189.716C992.308 189.758 995.266 191.175 997.329 193.966C999.412 196.758 1000.27 200.373 999.891 204.81C999.516 209.373 997.808 213.102 994.766 215.998C991.724 218.893 987.964 220.3 983.485 220.216C979.693 220.133 976.61 218.914 974.235 216.56C971.881 214.206 970.641 211.102 970.516 207.248H977.61C977.756 209.373 978.349 211.039 979.391 212.248C980.454 213.435 981.933 214.05 983.829 214.091C986.141 214.154 988.079 213.31 989.641 211.56C991.224 209.81 992.172 207.477 992.485 204.56C992.735 201.977 992.308 199.893 991.204 198.31C990.099 196.706 988.454 195.883 986.266 195.841C984.933 195.8 983.735 196.018 982.672 196.498C981.631 196.956 980.61 197.602 979.61 198.435L973.516 196.904Z" fill="white"/>
<path d="M1018.3 220.185C1014.36 220.102 1011.38 218.748 1009.36 216.123C1007.34 213.477 1006.36 209.779 1006.42 205.029C1006.44 203.487 1006.55 201.945 1006.73 200.404L1007.95 192.279C1008.97 185.904 1010.94 181.143 1013.86 177.998C1016.78 174.852 1020.55 173.331 1025.17 173.435C1029.09 173.518 1032.06 174.852 1034.08 177.435C1036.12 180.018 1037.11 183.685 1037.05 188.435C1037.03 189.998 1036.92 191.539 1036.73 193.06L1035.52 200.966C1034.45 207.487 1032.47 212.352 1029.58 215.56C1026.7 218.748 1022.94 220.289 1018.3 220.185ZM1029.52 191.841C1029.79 189.466 1029.92 187.779 1029.92 186.779C1029.82 182.07 1028.1 179.643 1024.77 179.498C1022.22 179.393 1020.18 180.32 1018.64 182.279C1017.1 184.237 1016.02 187.352 1015.39 191.623L1013.95 201.529C1013.7 203.675 1013.59 205.373 1013.61 206.623C1013.61 211.498 1015.32 214.008 1018.73 214.154C1023.44 214.425 1026.47 210.748 1027.83 203.123L1029.52 191.841Z" fill="white"/>
<path d="M1053.92 220.185C1049.98 220.102 1047.01 218.748 1044.98 216.123C1042.96 213.477 1041.98 209.779 1042.05 205.029C1042.07 203.487 1042.17 201.945 1042.36 200.404L1043.58 192.279C1044.6 185.904 1046.57 181.143 1049.48 177.998C1052.4 174.852 1056.17 173.331 1060.8 173.435C1064.71 173.518 1067.68 174.852 1069.7 177.435C1071.75 180.018 1072.73 183.685 1072.67 188.435C1072.65 189.998 1072.55 191.539 1072.36 193.06L1071.14 200.966C1070.08 207.487 1068.1 212.352 1065.2 215.56C1062.33 218.748 1058.57 220.289 1053.92 220.185ZM1065.14 191.841C1065.41 189.466 1065.55 187.779 1065.55 186.779C1065.44 182.07 1063.72 179.643 1060.39 179.498C1057.85 179.393 1055.81 180.32 1054.27 182.279C1052.72 184.237 1051.64 187.352 1051.02 191.623L1049.58 201.529C1049.33 203.675 1049.21 205.373 1049.23 206.623C1049.23 211.498 1050.94 214.008 1054.36 214.154C1059.07 214.425 1062.1 210.748 1063.45 203.123L1065.14 191.841Z" fill="white"/>
<path d="M711 281.56H705.235L707.86 266.396H693.094L690.469 281.56H684.68L690.61 247.435H696.399L693.915 261.638H708.68L711.141 247.435H716.93L711 281.56Z" fill="white"/>
<path d="M732.54 281.56C732.352 280.935 732.274 280.146 732.305 279.193C730.211 281.146 727.954 282.091 725.532 282.029C723.329 281.997 721.5 281.294 720.047 279.919C718.61 278.529 717.938 276.771 718.032 274.646C718.157 271.974 719.313 269.872 721.5 268.341C723.688 266.81 726.625 266.044 730.313 266.044L733.922 266.091L734.25 264.357C734.344 263.747 734.344 263.177 734.25 262.646C733.938 260.958 732.821 260.091 730.899 260.044C729.711 260.013 728.665 260.318 727.758 260.958C726.868 261.583 726.321 262.427 726.118 263.49L720.563 263.537C720.672 261.974 721.227 260.607 722.227 259.435C723.227 258.247 724.555 257.326 726.211 256.669C727.868 256.013 729.618 255.701 731.461 255.732C734.227 255.794 736.383 256.63 737.93 258.24C739.477 259.833 740.118 261.904 739.852 264.451L737.907 276.333L737.719 278.443C737.672 279.365 737.79 280.263 738.071 281.138L738.047 281.56H732.54ZM726.821 277.482C727.993 277.513 729.079 277.247 730.079 276.685C731.079 276.107 731.93 275.365 732.633 274.458L733.5 269.654L730.852 269.63C728.758 269.63 727.086 270.029 725.836 270.826C724.586 271.607 723.875 272.685 723.704 274.06C723.579 275.107 723.805 275.935 724.383 276.544C724.977 277.138 725.79 277.451 726.821 277.482Z" fill="white"/>
<path d="M765.844 277.505C767.172 277.537 768.344 277.154 769.36 276.357C770.391 275.544 771.047 274.49 771.329 273.193L776.579 273.169C776.407 274.841 775.797 276.365 774.75 277.74C773.719 279.115 772.391 280.185 770.766 280.951C769.141 281.716 767.446 282.076 765.68 282.029C763.508 281.997 761.657 281.435 760.125 280.341C758.594 279.247 757.477 277.74 756.774 275.818C756.071 273.88 755.836 271.724 756.071 269.349L756.141 268.529C756.407 266.076 757.118 263.857 758.274 261.872C759.446 259.872 760.954 258.333 762.797 257.255C764.641 256.177 766.688 255.669 768.938 255.732C771.688 255.794 773.883 256.708 775.524 258.474C777.165 260.224 777.985 262.505 777.985 265.318H772.782C772.782 263.865 772.422 262.677 771.704 261.755C771 260.833 769.977 260.341 768.633 260.279C766.461 260.216 764.75 261.138 763.5 263.044C762.25 264.951 761.579 267.638 761.485 271.107C761.375 275.31 762.829 277.443 765.844 277.505Z" fill="white"/>
<path d="M790.875 282.029C788.672 281.982 786.758 281.427 785.133 280.365C783.524 279.302 782.329 277.849 781.547 276.005C780.782 274.162 780.493 272.107 780.68 269.841L780.75 268.88C781.032 266.302 781.782 263.99 783 261.943C784.235 259.88 785.766 258.318 787.594 257.255C789.422 256.193 791.407 255.685 793.547 255.732C796.719 255.794 799.094 256.974 800.672 259.271C802.266 261.568 802.868 264.56 802.477 268.247L802.149 270.685H786.188C786.047 272.701 786.454 274.326 787.407 275.56C788.36 276.794 789.672 277.427 791.344 277.458C793.735 277.537 795.938 276.497 797.954 274.341L800.766 277.294C799.704 278.81 798.305 279.99 796.571 280.833C794.836 281.662 792.938 282.06 790.875 282.029ZM793.243 260.279C790.305 260.185 788.102 262.263 786.633 266.513L797.157 266.537L797.25 266.044C797.36 265.326 797.368 264.622 797.274 263.935C797.102 262.826 796.665 261.951 795.961 261.31C795.258 260.669 794.352 260.326 793.243 260.279Z" fill="white"/>
<path d="M828.352 268.974C828.04 271.505 827.36 273.802 826.313 275.865C825.282 277.927 823.961 279.49 822.352 280.552C820.758 281.599 818.969 282.099 816.985 282.052C814.344 281.99 812.266 281.052 810.75 279.24L808.477 291.31H802.899L808.993 256.201L814.079 256.177L813.657 258.802C815.594 256.693 817.899 255.669 820.571 255.732C822.18 255.747 823.579 256.162 824.766 256.974C825.954 257.771 826.86 258.935 827.485 260.466C828.125 261.997 828.469 263.701 828.516 265.576C828.532 266.529 828.477 267.662 828.352 268.974ZM822.868 268.482L822.985 266.771C823.032 264.755 822.696 263.193 821.977 262.083C821.274 260.974 820.211 260.404 818.79 260.372C816.696 260.31 814.883 261.271 813.352 263.255L811.383 274.576C812.086 276.466 813.516 277.443 815.672 277.505C817.516 277.552 819.063 276.833 820.313 275.349C821.579 273.865 822.43 271.576 822.868 268.482Z" fill="white"/>
<path d="M831.469 281.56L835.875 256.201L845.579 256.224C847.891 256.287 849.813 256.654 851.344 257.326C853.907 258.466 855.118 260.365 854.977 263.021C854.821 265.521 853.118 267.404 849.868 268.669C851.18 269.06 852.211 269.732 852.961 270.685C853.727 271.638 854.094 272.787 854.063 274.13C853.985 276.443 853.032 278.247 851.204 279.544C849.391 280.841 846.891 281.513 843.704 281.56H831.469ZM838.922 270.755L837.821 277.06L843.54 277.083C845.055 277.037 846.243 276.724 847.102 276.146C847.977 275.568 848.485 274.771 848.625 273.755C848.782 272.865 848.579 272.162 848.016 271.646C847.469 271.115 846.555 270.826 845.274 270.779L838.922 270.755ZM839.602 266.677L843.868 266.701C847.18 266.701 849.008 265.685 849.352 263.654C849.493 262.747 849.258 262.052 848.649 261.568C848.055 261.068 846.977 260.794 845.415 260.747L840.657 260.724L839.602 266.677Z" fill="white"/>
<path d="M869.297 282.029C867.094 281.982 865.18 281.427 863.555 280.365C861.946 279.302 860.75 277.849 859.969 276.005C859.204 274.162 858.915 272.107 859.102 269.841L859.172 268.88C859.454 266.302 860.204 263.99 861.422 261.943C862.657 259.88 864.188 258.318 866.016 257.255C867.844 256.193 869.829 255.685 871.969 255.732C875.141 255.794 877.516 256.974 879.094 259.271C880.688 261.568 881.29 264.56 880.899 268.247L880.571 270.685H864.61C864.469 272.701 864.875 274.326 865.829 275.56C866.782 276.794 868.094 277.427 869.766 277.458C872.157 277.537 874.36 276.497 876.375 274.341L879.188 277.294C878.125 278.81 876.727 279.99 874.993 280.833C873.258 281.662 871.36 282.06 869.297 282.029ZM871.665 260.279C868.727 260.185 866.524 262.263 865.055 266.513L875.579 266.537L875.672 266.044C875.782 265.326 875.79 264.622 875.696 263.935C875.524 262.826 875.086 261.951 874.383 261.31C873.68 260.669 872.774 260.326 871.665 260.279Z" fill="white"/>
<path d="M906.774 268.974C906.461 271.505 905.782 273.802 904.735 275.865C903.704 277.927 902.383 279.49 900.774 280.552C899.18 281.599 897.391 282.099 895.407 282.052C892.766 281.99 890.688 281.052 889.172 279.24L886.899 291.31H881.321L887.415 256.201L892.5 256.177L892.079 258.802C894.016 256.693 896.321 255.669 898.993 255.732C900.602 255.747 902 256.162 903.188 256.974C904.375 257.771 905.282 258.935 905.907 260.466C906.547 261.997 906.891 263.701 906.938 265.576C906.954 266.529 906.899 267.662 906.774 268.974ZM901.29 268.482L901.407 266.771C901.454 264.755 901.118 263.193 900.399 262.083C899.696 260.974 898.633 260.404 897.211 260.372C895.118 260.31 893.305 261.271 891.774 263.255L889.805 274.576C890.508 276.466 891.938 277.443 894.094 277.505C895.938 277.552 897.485 276.833 898.735 275.349C900 273.865 900.852 271.576 901.29 268.482Z" fill="white"/>
<path d="M920.954 282.029C918.75 281.982 916.836 281.427 915.211 280.365C913.602 279.302 912.407 277.849 911.625 276.005C910.86 274.162 910.571 272.107 910.758 269.841L910.829 268.88C911.11 266.302 911.86 263.99 913.079 261.943C914.313 259.88 915.844 258.318 917.672 257.255C919.5 256.193 921.485 255.685 923.625 255.732C926.797 255.794 929.172 256.974 930.75 259.271C932.344 261.568 932.946 264.56 932.555 268.247L932.227 270.685H916.266C916.125 272.701 916.532 274.326 917.485 275.56C918.438 276.794 919.75 277.427 921.422 277.458C923.813 277.537 926.016 276.497 928.032 274.341L930.844 277.294C929.782 278.81 928.383 279.99 926.649 280.833C924.915 281.662 923.016 282.06 920.954 282.029ZM923.321 260.279C920.383 260.185 918.18 262.263 916.711 266.513L927.235 266.537L927.329 266.044C927.438 265.326 927.446 264.622 927.352 263.935C927.18 262.826 926.743 261.951 926.04 261.31C925.336 260.669 924.43 260.326 923.321 260.279Z" fill="white"/>
<path d="M967.454 281.56H961.875L965.485 260.794H955.946L952.336 281.56H946.758L951.165 256.201H971.86L967.454 281.56Z" fill="white"/>
<path d="M974.883 268.787C975.149 266.302 975.875 264.044 977.063 262.013C978.266 259.982 979.805 258.412 981.68 257.302C983.555 256.193 985.633 255.669 987.915 255.732C990.086 255.763 991.961 256.341 993.54 257.466C995.118 258.591 996.266 260.13 996.985 262.083C997.719 264.037 997.977 266.208 997.758 268.599C997.508 271.287 996.774 273.662 995.555 275.724C994.352 277.787 992.805 279.372 990.915 280.482C989.04 281.576 986.954 282.091 984.657 282.029C982.5 281.997 980.633 281.427 979.055 280.318C977.493 279.193 976.344 277.662 975.61 275.724C974.875 273.771 974.61 271.622 974.813 269.279L974.883 268.787ZM980.344 271.997C980.422 273.638 980.852 274.958 981.633 275.958C982.43 276.943 983.532 277.458 984.938 277.505C986.844 277.552 988.438 276.818 989.719 275.302C991.016 273.787 991.829 271.716 992.157 269.091L992.297 266.794C992.297 264.794 991.899 263.224 991.102 262.083C990.305 260.943 989.149 260.341 987.633 260.279C985.258 260.216 983.383 261.38 982.008 263.771C981.18 265.224 980.657 266.896 980.438 268.787C980.313 270.099 980.282 271.169 980.344 271.997Z" fill="white"/>
<path d="M1010.51 256.201L1006.88 277.013H1014.52L1018.15 256.201H1023.7L1020.09 277.013H1027.76L1031.37 256.201H1036.92L1032.52 281.56H1000.52L1004.93 256.201H1010.51Z" fill="white"/>
<path d="M1064.04 256.201L1059.66 281.56H1054.08L1057.69 260.794H1050.8L1048.48 271.388C1047.65 274.982 1046.44 277.583 1044.84 279.193C1043.25 280.787 1041.21 281.576 1038.73 281.56H1036.81L1037.32 276.849L1038.16 276.779C1039.59 276.654 1040.74 276.005 1041.63 274.833C1042.54 273.646 1043.23 271.685 1043.72 268.951L1044.07 267.029L1046.32 256.201H1064.04Z" fill="white"/>
<path d="M1067.09 268.787C1067.35 266.302 1068.08 264.044 1069.27 262.013C1070.47 259.982 1072.01 258.412 1073.88 257.302C1075.76 256.193 1077.84 255.669 1080.12 255.732C1082.29 255.763 1084.16 256.341 1085.74 257.466C1087.32 258.591 1088.47 260.13 1089.19 262.083C1089.92 264.037 1090.18 266.208 1089.96 268.599C1089.71 271.287 1088.98 273.662 1087.76 275.724C1086.56 277.787 1085.01 279.372 1083.12 280.482C1081.24 281.576 1079.16 282.091 1076.86 282.029C1074.7 281.997 1072.84 281.427 1071.26 280.318C1069.7 279.193 1068.55 277.662 1067.81 275.724C1067.08 273.771 1066.81 271.622 1067.02 269.279L1067.09 268.787ZM1072.55 271.997C1072.63 273.638 1073.06 274.958 1073.84 275.958C1074.63 276.943 1075.73 277.458 1077.14 277.505C1079.05 277.552 1080.64 276.818 1081.92 275.302C1083.22 273.787 1084.03 271.716 1084.36 269.091L1084.5 266.794C1084.5 264.794 1084.1 263.224 1083.31 262.083C1082.51 260.943 1081.35 260.341 1079.84 260.279C1077.46 260.216 1075.59 261.38 1074.21 263.771C1073.38 265.224 1072.86 266.896 1072.64 268.787C1072.52 270.099 1072.48 271.169 1072.55 271.997Z" fill="white"/>
<path d="M704.11 337.56H698.555L700.196 329.052C698.774 329.396 697.305 329.568 695.79 329.568C692.758 329.537 690.43 328.662 688.805 326.943C687.196 325.224 686.54 322.896 686.836 319.958L688.079 312.177H693.657L692.391 319.982C692.297 320.732 692.29 321.404 692.368 321.997C692.555 323.888 693.79 324.88 696.071 324.974C697.368 325.021 698.907 324.865 700.688 324.505L702.961 312.201H708.516L704.11 337.56Z" fill="white"/>
<path d="M732.985 316.724H725.016L721.383 337.56H715.829L719.438 316.724H711.54L712.336 312.201H733.782L732.985 316.724Z" fill="white"/>
<path d="M733.899 324.787C734.165 322.302 734.891 320.044 736.079 318.013C737.282 315.982 738.821 314.412 740.696 313.302C742.571 312.193 744.649 311.669 746.93 311.732C749.102 311.763 750.977 312.341 752.555 313.466C754.133 314.591 755.282 316.13 756 318.083C756.735 320.037 756.993 322.208 756.774 324.599C756.524 327.287 755.79 329.662 754.571 331.724C753.368 333.787 751.821 335.372 749.93 336.482C748.055 337.576 745.969 338.091 743.672 338.029C741.516 337.997 739.649 337.427 738.071 336.318C736.508 335.193 735.36 333.662 734.625 331.724C733.891 329.771 733.625 327.622 733.829 325.279L733.899 324.787ZM739.36 327.997C739.438 329.638 739.868 330.958 740.649 331.958C741.446 332.943 742.547 333.458 743.954 333.505C745.86 333.552 747.454 332.818 748.735 331.302C750.032 329.787 750.844 327.716 751.172 325.091L751.313 322.794C751.313 320.794 750.915 319.224 750.118 318.083C749.321 316.943 748.165 316.341 746.649 316.279C744.274 316.216 742.399 317.38 741.024 319.771C740.196 321.224 739.672 322.896 739.454 324.787C739.329 326.099 739.297 327.169 739.36 327.997Z" fill="white"/>
<path d="M772.196 325.349H760.219L761.04 320.755H773.016L772.196 325.349Z" fill="white"/>
<path d="M797.86 316.724H789.891L786.258 337.56H780.704L784.313 316.724H776.415L777.211 312.201H798.657L797.86 316.724Z" fill="white"/>
<path d="M798.774 324.787C799.04 322.302 799.766 320.044 800.954 318.013C802.157 315.982 803.696 314.412 805.571 313.302C807.446 312.193 809.524 311.669 811.805 311.732C813.977 311.763 815.852 312.341 817.43 313.466C819.008 314.591 820.157 316.13 820.875 318.083C821.61 320.037 821.868 322.208 821.649 324.599C821.399 327.287 820.665 329.662 819.446 331.724C818.243 333.787 816.696 335.372 814.805 336.482C812.93 337.576 810.844 338.091 808.547 338.029C806.391 337.997 804.524 337.427 802.946 336.318C801.383 335.193 800.235 333.662 799.5 331.724C798.766 329.771 798.5 327.622 798.704 325.279L798.774 324.787ZM804.235 327.997C804.313 329.638 804.743 330.958 805.524 331.958C806.321 332.943 807.422 333.458 808.829 333.505C810.735 333.552 812.329 332.818 813.61 331.302C814.907 329.787 815.719 327.716 816.047 325.091L816.188 322.794C816.188 320.794 815.79 319.224 814.993 318.083C814.196 316.943 813.04 316.341 811.524 316.279C809.149 316.216 807.274 317.38 805.899 319.771C805.071 321.224 804.547 322.896 804.329 324.787C804.204 326.099 804.172 327.169 804.235 327.997Z" fill="white"/>
<path d="M856.946 337.56H851.368L853.149 327.318H843.633L841.852 337.56H836.274L840.68 312.201H846.258L844.407 322.771H853.946L855.774 312.201H861.352L856.946 337.56Z" fill="white"/>
<path d="M874.5 338.029C872.297 337.982 870.383 337.427 868.758 336.365C867.149 335.302 865.954 333.849 865.172 332.005C864.407 330.162 864.118 328.107 864.305 325.841L864.375 324.88C864.657 322.302 865.407 319.99 866.625 317.943C867.86 315.88 869.391 314.318 871.219 313.255C873.047 312.193 875.032 311.685 877.172 311.732C880.344 311.794 882.719 312.974 884.297 315.271C885.891 317.568 886.493 320.56 886.102 324.247L885.774 326.685H869.813C869.672 328.701 870.079 330.326 871.032 331.56C871.985 332.794 873.297 333.427 874.969 333.458C877.36 333.537 879.563 332.497 881.579 330.341L884.391 333.294C883.329 334.81 881.93 335.99 880.196 336.833C878.461 337.662 876.563 338.06 874.5 338.029ZM876.868 316.279C873.93 316.185 871.727 318.263 870.258 322.513L880.782 322.537L880.875 322.044C880.985 321.326 880.993 320.622 880.899 319.935C880.727 318.826 880.29 317.951 879.586 317.31C878.883 316.669 877.977 316.326 876.868 316.279Z" fill="white"/>
<path d="M923.11 316.724H915.141L911.508 337.56H905.954L909.563 316.724H901.665L902.461 312.201H923.907L923.11 316.724Z" fill="white"/>
<path d="M938.086 337.56C937.899 336.935 937.821 336.146 937.852 335.193C935.758 337.146 933.5 338.091 931.079 338.029C928.875 337.997 927.047 337.294 925.594 335.919C924.157 334.529 923.485 332.771 923.579 330.646C923.704 327.974 924.86 325.872 927.047 324.341C929.235 322.81 932.172 322.044 935.86 322.044L939.469 322.091L939.797 320.357C939.891 319.747 939.891 319.177 939.797 318.646C939.485 316.958 938.368 316.091 936.446 316.044C935.258 316.013 934.211 316.318 933.305 316.958C932.415 317.583 931.868 318.427 931.665 319.49L926.11 319.537C926.219 317.974 926.774 316.607 927.774 315.435C928.774 314.247 930.102 313.326 931.758 312.669C933.415 312.013 935.165 311.701 937.008 311.732C939.774 311.794 941.93 312.63 943.477 314.24C945.024 315.833 945.665 317.904 945.399 320.451L943.454 332.333L943.266 334.443C943.219 335.365 943.336 336.263 943.618 337.138L943.594 337.56H938.086ZM932.368 333.482C933.54 333.513 934.625 333.247 935.625 332.685C936.625 332.107 937.477 331.365 938.18 330.458L939.047 325.654L936.399 325.63C934.305 325.63 932.633 326.029 931.383 326.826C930.133 327.607 929.422 328.685 929.25 330.06C929.125 331.107 929.352 331.935 929.93 332.544C930.524 333.138 931.336 333.451 932.368 333.482Z" fill="white"/>
<path d="M959.157 327.529H956.204L954.446 337.56H948.891L953.297 312.201H958.852L957.094 322.326H959.297L967.852 312.201H975.118L963.844 324.622L971.063 337.56H964.243L959.157 327.529Z" fill="white"/>
<path d="M975.235 334.818C975.235 333.865 975.532 333.091 976.125 332.497C976.735 331.888 977.508 331.568 978.446 331.537C979.368 331.505 980.133 331.787 980.743 332.38C981.368 332.958 981.68 333.708 981.68 334.63C981.68 335.537 981.383 336.294 980.79 336.904C980.196 337.497 979.422 337.81 978.469 337.841C977.547 337.872 976.774 337.599 976.149 337.021C975.54 336.443 975.235 335.708 975.235 334.818Z" fill="white"/>
<path d="M988.5 334.818C988.5 333.865 988.797 333.091 989.391 332.497C990 331.888 990.774 331.568 991.711 331.537C992.633 331.505 993.399 331.787 994.008 332.38C994.633 332.958 994.946 333.708 994.946 334.63C994.946 335.537 994.649 336.294 994.055 336.904C993.461 337.497 992.688 337.81 991.735 337.841C990.813 337.872 990.04 337.599 989.415 337.021C988.805 336.443 988.5 335.708 988.5 334.818Z" fill="white"/>
<path d="M1001.77 334.818C1001.77 333.865 1002.06 333.091 1002.66 332.497C1003.27 331.888 1004.04 331.568 1004.98 331.537C1005.9 331.505 1006.66 331.787 1007.27 332.38C1007.9 332.958 1008.21 333.708 1008.21 334.63C1008.21 335.537 1007.91 336.294 1007.32 336.904C1006.73 337.497 1005.95 337.81 1005 337.841C1004.08 337.872 1003.31 337.599 1002.68 337.021C1002.07 336.443 1001.77 335.708 1001.77 334.818Z" fill="white"/>
</svg>
