<svg width="1265" height="772" viewBox="0 0 1265 772" fill="none" xmlns="http://www.w3.org/2000/svg">
<g clip-path="url(#clip0)">
<path d="M202.35 629.09H716.5C723.26 629.09 727.235 625.771 735.896 638.105L753.121 659.984C757.03 664.946 754.687 669 747.926 669H233.766C227.005 669 221.886 668.211 216.832 659.595L198.959 632.657C195.061 627.684 195.59 629.09 202.35 629.09Z" fill="#AAAAAA"/>
<path d="M704.135 511.055H715.129C722.256 511.055 728.088 505.218 728.088 498.083V406.847C728.088 399.712 722.256 393.875 715.129 393.875H704.135C697.007 393.875 691.175 399.712 691.175 406.847V498.083C691.175 505.218 697.007 511.055 704.135 511.055Z" fill="#A3AAC6"/>
<path d="M700.29 391.313H715.129C722.256 391.313 728.088 385.476 728.088 378.341V284.327C728.088 277.192 722.256 271.355 715.129 271.355H700.29C693.163 271.355 687.331 277.192 687.331 284.327V378.341C687.331 385.476 693.163 391.313 700.29 391.313Z" fill="#A3AAC6"/>
<path d="M704.135 638.278H712.99C720.118 638.278 725.95 632.441 725.95 625.306V531.865C725.95 524.73 720.118 518.893 712.99 518.893H704.135C697.007 518.893 691.175 524.73 691.175 531.865V625.306C691.175 632.441 697.007 638.278 704.135 638.278Z" fill="#A3AAC6"/>
<path d="M665.322 586.325V568.781C665.322 561.646 659.512 561.938 652.406 561.938H480.004C472.898 561.938 467.087 560.641 467.087 567.775V586.325C467.087 593.46 472.898 592.163 480.004 592.163H652.406C659.512 592.163 665.322 593.46 665.322 586.325Z" fill="#A3AAC6"/>
<path d="M665.322 463.902V446.358C665.322 439.223 659.512 439.515 652.406 439.515H480.004C472.898 439.515 467.087 438.218 467.087 445.352V463.902C467.087 471.037 472.898 469.74 480.004 469.74H652.406C659.512 469.74 665.322 471.037 665.322 463.902Z" fill="#A3AAC6"/>
<path d="M667.708 346.203V328.658C667.708 321.524 661.898 321.816 654.792 321.816H482.39C475.284 321.816 469.474 320.519 469.474 327.653V346.203C469.474 353.338 475.284 352.04 482.39 352.04H654.792C661.898 352.04 667.708 353.338 667.708 346.203Z" fill="#A3AAC6"/>
<path d="M725.95 509.196V499.499C725.95 492.365 720.118 486.527 712.99 486.527H211.843C204.715 486.527 198.884 492.365 198.884 499.499V509.196C202.383 511.045 206.357 512.969 213.485 512.969L712.99 522.168C720.118 522.168 725.95 516.331 725.95 509.196Z" fill="#A3AAC6"/>
<path d="M726.09 623.739V620.463C726.09 615.166 721.759 610.842 716.479 610.842H208.636C203.344 610.842 199.024 615.177 199.024 620.463V623.739C199.024 629.035 203.355 633.359 208.636 633.359H716.479C721.77 633.359 726.09 629.035 726.09 623.739Z" fill="#A3AAC6"/>
<path d="M726.09 379.454V372.612C726.09 367.845 722.191 363.942 717.429 363.942H207.685C202.923 363.942 199.024 367.845 199.024 372.612V379.454C199.024 384.222 202.923 388.124 207.685 388.124H717.429C722.191 388.124 726.09 384.222 726.09 379.454Z" fill="#A3AAC6"/>
<path d="M122.532 120.707L154.617 105.205C155.103 104.967 155.589 105.659 155.286 106.157L130.858 146.683C130.534 147.224 131.107 147.937 131.593 147.591L162.619 125.82" stroke="#A3AAC6" stroke-width="4" stroke-miterlimit="10" stroke-linecap="round"/>
<path d="M150.178 145.17L169.326 139.105C169.617 139.008 169.844 139.397 169.639 139.635L153.04 158.996C152.824 159.255 153.094 159.655 153.386 159.504L172.371 150.153" stroke="#A3AAC6" stroke-width="3" stroke-miterlimit="10" stroke-linecap="round"/>
<path d="M185.449 143.127L196.367 141.084C196.529 141.051 196.465 141.505 196.281 141.711L180.805 158.434C180.6 158.661 180.546 159.147 180.741 159.05L192.987 153.483" stroke="#A3AAC6" stroke-width="2" stroke-miterlimit="10" stroke-linecap="round"/>
<path d="M264.285 156.12C265.462 149.321 268.41 137.808 276.607 126.468C283.605 116.794 287.903 112.913 297.634 106.989C299.405 105.908 304.48 104.167 307.278 104.654C313.282 105.703 316.317 114.448 317.98 119.226C321.868 130.403 321.079 140.327 320.528 146.456C320.042 151.883 318.844 159.644 315.636 168.638L264.285 156.12Z" fill="#627BFC"/>
<path d="M203.927 253.356C197.469 253.778 186.313 253.572 174.099 248.319C163.678 243.832 159.153 240.611 151.528 232.666C150.135 231.217 147.381 226.774 147.187 223.985C146.755 218.018 154.023 213.121 157.986 210.462C167.274 204.214 176.475 202.711 182.188 201.846C187.231 201.079 194.575 200.463 203.506 201.479L203.927 253.356Z" fill="#627BFC"/>
<path d="M275.506 349.262C285.496 349.262 293.595 341.156 293.595 331.156C293.595 321.155 285.496 313.049 275.506 313.049C265.515 313.049 257.417 321.155 257.417 331.156C257.417 341.156 265.515 349.262 275.506 349.262Z" fill="#E298CD" stroke="#2D2D2D" stroke-width="9" stroke-miterlimit="10"/>
<path d="M711.133 511.055H213.431C205.277 511.055 198.603 504.375 198.603 496.213C198.603 489.76 198.603 483.295 198.603 476.842C198.603 455.373 198.603 433.894 198.603 412.425C198.603 411.431 198.722 406.188 202.955 401.95C205.644 399.258 209.348 397.594 213.42 397.594H711.122C719.275 397.594 725.949 404.274 725.949 412.436V496.224C725.96 504.375 719.286 511.055 711.133 511.055Z" stroke="#2D2D2D" stroke-width="9" stroke-miterlimit="10"/>
<path d="M275.506 472.431C285.496 472.431 293.595 464.325 293.595 454.324C293.595 444.324 285.496 436.218 275.506 436.218C265.515 436.218 257.417 444.324 257.417 454.324C257.417 464.325 265.515 472.431 275.506 472.431Z" fill="#4CD874" stroke="#2D2D2D" stroke-width="9" stroke-miterlimit="10"/>
<path d="M711.133 634.213H213.42C205.266 634.213 198.592 627.533 198.592 619.371V535.583C198.592 527.422 205.266 520.741 213.42 520.741H711.122C719.275 520.741 725.95 527.422 725.95 535.583V619.371C725.95 627.544 719.286 634.213 711.133 634.213Z" stroke="#2D2D2D" stroke-width="9" stroke-miterlimit="10"/>
<path d="M275.506 595.589C285.496 595.589 293.595 587.483 293.595 577.483C293.595 567.483 285.496 559.376 275.506 559.376C265.515 559.376 257.417 567.483 257.417 577.483C257.417 587.483 265.515 595.589 275.506 595.589Z" fill="#DADD66" stroke="#2D2D2D" stroke-width="9" stroke-miterlimit="10"/>
<path d="M474.593 326.453H662.578" stroke="#2D2D2D" stroke-width="9" stroke-miterlimit="10" stroke-linecap="round"/>
<path d="M474.593 347.403H662.578" stroke="#2D2D2D" stroke-width="9" stroke-miterlimit="10" stroke-linecap="round"/>
<path d="M472.034 443.839H660.019" stroke="#2D2D2D" stroke-width="9" stroke-miterlimit="10" stroke-linecap="round"/>
<path d="M472.034 464.799H660.019" stroke="#2D2D2D" stroke-width="9" stroke-miterlimit="10" stroke-linecap="round"/>
<path d="M472.034 567.008H660.019" stroke="#2D2D2D" stroke-width="9" stroke-miterlimit="10" stroke-linecap="round"/>
<path d="M275.506 275.56L344.006 200.582C350.605 194.82 359.774 187.383 371.351 179.632C386.232 169.665 417.388 150.921 460.219 140.716C483.589 135.149 531.214 124.404 587.101 141.148C605.666 146.705 653.647 161.082 678.097 202.733C683.961 212.721 696.856 234.676 688.346 255.334C684.836 263.863 678.778 269.495 674.253 272.868L324.783 276.284" fill="#627BFC"/>
<path d="M711.133 387.886H213.431C205.277 387.886 198.603 381.206 198.603 373.044V289.256C198.603 281.095 205.277 274.414 213.431 274.414H711.133C719.286 274.414 725.96 281.095 725.96 289.256V373.044C725.96 381.217 719.286 387.886 711.133 387.886Z" stroke="#2D2D2D" stroke-width="9" stroke-miterlimit="10"/>
<path d="M690.387 243.541C691.413 235.53 690.484 232.925 690.225 232.179C690.182 232.06 690.29 231.92 690.419 231.898C700.841 230.158 722.613 238.352 729.211 244.687C733.531 248.838 743.239 261.118 744.654 278.5C745.831 292.975 741.112 305.503 720.82 330.442C707.655 346.625 693.994 356.181 683.605 366.699C663.918 386.611 657.946 394.87 648.939 409.258C640.494 422.759 639.435 433.515 639.209 446.639C638.895 465.383 654.328 478.982 669.447 485.652C690.56 494.97 709.707 490.073 716.349 499.878C720.053 505.337 719.427 510.666 712.979 513.023C691.013 521.055 666.218 512.331 663.443 511.228C656.801 508.601 636.746 505.434 624.435 490.57C604.488 466.475 611.562 443.828 613.312 435.721C623.733 387.249 669.339 354.419 676.855 345.284C683.745 336.896 698.735 321.459 711.435 306.444C722.99 292.78 722.937 283.202 715.658 270.436C705.333 252.34 685.754 260.523 685.754 260.523C689.383 251.367 689.642 249.378 690.387 243.541Z" fill="#6F8EDD"/>
<path d="M472.034 587.958H660.019" stroke="#2D2D2D" stroke-width="9" stroke-miterlimit="10" stroke-linecap="round"/>
<path d="M198.603 481.62C150.589 481.62 111.657 444.001 111.657 397.583C111.657 351.165 150.578 313.546 198.603 313.546" stroke="#2D2D2D" stroke-width="8" stroke-miterlimit="10" stroke-linecap="round"/>
<path d="M195.266 606.205C147.241 606.205 108.32 568.586 108.32 522.168C108.32 475.75 147.241 438.131 195.266 438.131" stroke="#2D2D2D" stroke-width="8" stroke-miterlimit="10" stroke-linecap="round"/>
<path d="M280.985 287.226C324.118 280.497 354.24 243.924 348.263 205.539C342.286 167.153 302.474 141.49 259.341 148.219C216.207 154.949 186.086 191.521 192.062 229.907C198.039 268.293 237.851 293.956 280.985 287.226Z" fill="#627BFC"/>
<path d="M264.263 195.879C270.441 197.793 277.19 196.096 281.737 191.501C286.273 186.907 287.903 180.151 285.938 173.989" stroke="#333333" stroke-width="2" stroke-miterlimit="10" stroke-linecap="round"/>
<path d="M275.959 233.779L274.069 227.412C273.346 224.98 275.549 222.688 278.011 223.304L284.577 224.969C287.039 225.596 287.882 228.655 286.089 230.461L281.413 235.163C279.663 236.925 276.661 236.168 275.959 233.779Z" fill="#333333" stroke="#333333" stroke-width="2" stroke-miterlimit="10" stroke-linecap="round"/>
<path d="M283.929 232.633C284.75 233.412 284.739 233.336 286.413 234.46C289.707 236.665 293.4 239.141 297.526 238.471C301.403 237.833 304.265 234.071 305.28 232.59" stroke="#333333" stroke-width="2" stroke-miterlimit="10" stroke-linecap="round"/>
<path d="M283.692 232.947C284.707 233.444 284.437 233.26 286.067 234.439C289.286 236.752 292.893 239.357 293.703 243.465C294.469 247.324 290.916 251.075 289.88 252.545" stroke="#333333" stroke-width="2" stroke-miterlimit="10" stroke-linecap="round"/>
<path d="M224.63 238.276C230.807 240.19 237.556 238.492 242.103 233.898C246.639 229.304 248.27 222.548 246.304 216.386" stroke="#333333" stroke-width="2" stroke-miterlimit="10" stroke-linecap="round"/>
<path d="M217.599 205.079L210.947 219.878" stroke="#98AFEA" stroke-width="5" stroke-miterlimit="10" stroke-linecap="round"/>
<path d="M267.244 162.693L253.205 170.811" stroke="#98AFEA" stroke-width="5" stroke-miterlimit="10" stroke-linecap="round"/>
</g>
<path d="M773.719 331.625C770.76 331.563 768.156 330.854 765.906 329.5C763.677 328.146 761.938 326.188 760.688 323.625C759.438 321.042 758.729 318.115 758.562 314.844C758.417 312.24 758.646 309.198 759.25 305.719C759.875 302.24 760.969 299.073 762.531 296.219C764.115 293.344 766 291 768.188 289.188C771.792 286.229 775.958 284.792 780.688 284.875C785.188 284.958 788.771 286.51 791.438 289.531C794.125 292.552 795.594 296.635 795.844 301.781C795.969 304.365 795.729 307.333 795.125 310.688C794.542 314.021 793.521 317.094 792.062 319.906C790.625 322.698 788.833 325.031 786.688 326.906C782.979 330.156 778.656 331.729 773.719 331.625ZM787.938 307.031L788.219 303.719C788.344 301.448 788.146 299.354 787.625 297.438C787.104 295.5 786.219 294.031 784.969 293.031C783.74 292.01 782.177 291.469 780.281 291.406C777.656 291.323 775.323 292.063 773.281 293.625C771.26 295.188 769.615 297.563 768.344 300.75C767.094 303.938 766.365 307.938 766.156 312.75C765.948 316.563 766.531 319.563 767.906 321.75C769.281 323.938 771.344 325.073 774.094 325.156C777.698 325.26 780.667 323.906 783 321.094C785.354 318.281 786.896 314.323 787.625 309.219L787.938 307.031Z" fill="black"/>
<path d="M815.156 285.5L808.375 324.688H821.781L828.562 285.5H836.281L829.469 324.688H842.781L849.594 285.5H857.281L849.375 331H799.531L807.406 285.5H815.156Z" fill="black"/>
<path d="M893.469 285.5H901.438L893.531 331H885.812L891.375 299.063L866.719 331H858.781L866.688 285.5H874.406L868.844 317.469L893.469 285.5Z" fill="black"/>
<path d="M937.719 291.875H917.406L915.5 302.906L923.438 302.938C928.167 302.958 931.844 304.219 934.469 306.719C937.115 309.198 938.26 312.479 937.906 316.563C937.573 320.896 935.771 324.385 932.5 327.031C929.25 329.677 925.083 331 920 331H902.906L910.781 285.5H938.844L937.719 291.875ZM914.406 309.25L911.719 324.688L920.281 324.75C922.969 324.708 925.219 323.938 927.031 322.438C928.844 320.938 929.906 318.948 930.219 316.469C930.51 314.281 930.073 312.563 928.906 311.313C927.74 310.042 926.042 309.365 923.812 309.281L914.406 309.25Z" fill="black"/>
<path d="M959.125 311.5H953.688L950.312 331H942.625L950.5 285.5H958.188L954.875 304.625H958.781L975.094 285.5H985.031L965.781 307.656L977.969 331H969.219L959.125 311.5Z" fill="black"/>
<path d="M1009.41 320.406H992.375L986.938 331H978.625L1003.19 285.5H1010.12L1018.94 331H1011.19L1009.41 320.406ZM995.625 314.031H1008.38L1005.28 295.219L995.625 314.031Z" fill="black"/>
<path d="M1044.75 308.344L1050.72 285.5H1074.53L1073.5 292.063H1055.97L1052.75 302.969C1054.88 301.76 1057.19 301.156 1059.69 301.156C1063.54 301.198 1066.5 302.615 1068.56 305.406C1070.65 308.198 1071.5 311.813 1071.12 316.25C1070.75 320.813 1069.04 324.542 1066 327.438C1062.96 330.333 1059.2 331.74 1054.72 331.656C1050.93 331.573 1047.84 330.354 1045.47 328C1043.11 325.646 1041.88 322.542 1041.75 318.688H1048.84C1048.99 320.813 1049.58 322.479 1050.62 323.688C1051.69 324.875 1053.17 325.49 1055.06 325.531C1057.38 325.594 1059.31 324.75 1060.88 323C1062.46 321.25 1063.41 318.917 1063.72 316C1063.97 313.417 1063.54 311.333 1062.44 309.75C1061.33 308.146 1059.69 307.323 1057.5 307.281C1056.17 307.24 1054.97 307.458 1053.91 307.938C1052.86 308.396 1051.84 309.042 1050.84 309.875L1044.75 308.344Z" fill="black"/>
<path d="M1089.53 331.625C1085.59 331.542 1082.61 330.188 1080.59 327.563C1078.57 324.917 1077.59 321.219 1077.66 316.469C1077.68 314.927 1077.78 313.385 1077.97 311.844L1079.19 303.719C1080.21 297.344 1082.18 292.583 1085.09 289.438C1088.01 286.292 1091.78 284.771 1096.41 284.875C1100.32 284.958 1103.29 286.292 1105.31 288.875C1107.35 291.458 1108.34 295.125 1108.28 299.875C1108.26 301.438 1108.16 302.979 1107.97 304.5L1106.75 312.406C1105.69 318.927 1103.71 323.792 1100.81 327C1097.94 330.188 1094.18 331.729 1089.53 331.625ZM1100.75 303.281C1101.02 300.906 1101.16 299.219 1101.16 298.219C1101.05 293.51 1099.33 291.083 1096 290.938C1093.46 290.833 1091.42 291.76 1089.88 293.719C1088.33 295.677 1087.25 298.792 1086.62 303.063L1085.19 312.969C1084.94 315.115 1084.82 316.813 1084.84 318.063C1084.84 322.938 1086.55 325.448 1089.97 325.594C1094.68 325.865 1097.71 322.188 1099.06 314.563L1100.75 303.281Z" fill="black"/>
<path d="M1125.16 331.625C1121.22 331.542 1118.24 330.188 1116.22 327.563C1114.2 324.917 1113.22 321.219 1113.28 316.469C1113.3 314.927 1113.41 313.385 1113.59 311.844L1114.81 303.719C1115.83 297.344 1117.8 292.583 1120.72 289.438C1123.64 286.292 1127.41 284.771 1132.03 284.875C1135.95 284.958 1138.92 286.292 1140.94 288.875C1142.98 291.458 1143.97 295.125 1143.91 299.875C1143.89 301.438 1143.78 302.979 1143.59 304.5L1142.38 312.406C1141.31 318.927 1139.33 323.792 1136.44 327C1133.56 330.188 1129.8 331.729 1125.16 331.625ZM1136.38 303.281C1136.65 300.906 1136.78 299.219 1136.78 298.219C1136.68 293.51 1134.96 291.083 1131.62 290.938C1129.08 290.833 1127.04 291.76 1125.5 293.719C1123.96 295.677 1122.88 298.792 1122.25 303.063L1120.81 312.969C1120.56 315.115 1120.45 316.813 1120.47 318.063C1120.47 322.938 1122.18 325.448 1125.59 325.594C1130.3 325.865 1133.33 322.188 1134.69 314.563L1136.38 303.281Z" fill="black"/>
<path d="M782.234 393H776.469L779.094 377.836H764.328L761.703 393H755.914L761.844 358.875H767.633L765.148 373.078H779.914L782.375 358.875H788.164L782.234 393Z" fill="black"/>
<path d="M803.773 393C803.586 392.375 803.508 391.586 803.539 390.633C801.445 392.586 799.188 393.531 796.766 393.469C794.562 393.438 792.734 392.734 791.281 391.359C789.844 389.969 789.172 388.211 789.266 386.086C789.391 383.414 790.547 381.312 792.734 379.781C794.922 378.25 797.859 377.484 801.547 377.484L805.156 377.531L805.484 375.797C805.578 375.188 805.578 374.617 805.484 374.086C805.172 372.398 804.055 371.531 802.133 371.484C800.945 371.453 799.898 371.758 798.992 372.398C798.102 373.023 797.555 373.867 797.352 374.93L791.797 374.977C791.906 373.414 792.461 372.047 793.461 370.875C794.461 369.688 795.789 368.766 797.445 368.109C799.102 367.453 800.852 367.141 802.695 367.172C805.461 367.234 807.617 368.07 809.164 369.68C810.711 371.273 811.352 373.344 811.086 375.891L809.141 387.773L808.953 389.883C808.906 390.805 809.023 391.703 809.305 392.578L809.281 393H803.773ZM798.055 388.922C799.227 388.953 800.312 388.688 801.312 388.125C802.312 387.547 803.164 386.805 803.867 385.898L804.734 381.094L802.086 381.07C799.992 381.07 798.32 381.469 797.07 382.266C795.82 383.047 795.109 384.125 794.938 385.5C794.812 386.547 795.039 387.375 795.617 387.984C796.211 388.578 797.023 388.891 798.055 388.922Z" fill="black"/>
<path d="M837.078 388.945C838.406 388.977 839.578 388.594 840.594 387.797C841.625 386.984 842.281 385.93 842.562 384.633L847.812 384.609C847.641 386.281 847.031 387.805 845.984 389.18C844.953 390.555 843.625 391.625 842 392.391C840.375 393.156 838.68 393.516 836.914 393.469C834.742 393.438 832.891 392.875 831.359 391.781C829.828 390.688 828.711 389.18 828.008 387.258C827.305 385.32 827.07 383.164 827.305 380.789L827.375 379.969C827.641 377.516 828.352 375.297 829.508 373.312C830.68 371.312 832.188 369.773 834.031 368.695C835.875 367.617 837.922 367.109 840.172 367.172C842.922 367.234 845.117 368.148 846.758 369.914C848.398 371.664 849.219 373.945 849.219 376.758H844.016C844.016 375.305 843.656 374.117 842.938 373.195C842.234 372.273 841.211 371.781 839.867 371.719C837.695 371.656 835.984 372.578 834.734 374.484C833.484 376.391 832.812 379.078 832.719 382.547C832.609 386.75 834.062 388.883 837.078 388.945Z" fill="black"/>
<path d="M862.109 393.469C859.906 393.422 857.992 392.867 856.367 391.805C854.758 390.742 853.562 389.289 852.781 387.445C852.016 385.602 851.727 383.547 851.914 381.281L851.984 380.32C852.266 377.742 853.016 375.43 854.234 373.383C855.469 371.32 857 369.758 858.828 368.695C860.656 367.633 862.641 367.125 864.781 367.172C867.953 367.234 870.328 368.414 871.906 370.711C873.5 373.008 874.102 376 873.711 379.688L873.383 382.125H857.422C857.281 384.141 857.688 385.766 858.641 387C859.594 388.234 860.906 388.867 862.578 388.898C864.969 388.977 867.172 387.938 869.188 385.781L872 388.734C870.938 390.25 869.539 391.43 867.805 392.273C866.07 393.102 864.172 393.5 862.109 393.469ZM864.477 371.719C861.539 371.625 859.336 373.703 857.867 377.953L868.391 377.977L868.484 377.484C868.594 376.766 868.602 376.062 868.508 375.375C868.336 374.266 867.898 373.391 867.195 372.75C866.492 372.109 865.586 371.766 864.477 371.719Z" fill="black"/>
<path d="M899.586 380.414C899.273 382.945 898.594 385.242 897.547 387.305C896.516 389.367 895.195 390.93 893.586 391.992C891.992 393.039 890.203 393.539 888.219 393.492C885.578 393.43 883.5 392.492 881.984 390.68L879.711 402.75H874.133L880.227 367.641L885.312 367.617L884.891 370.242C886.828 368.133 889.133 367.109 891.805 367.172C893.414 367.188 894.812 367.602 896 368.414C897.188 369.211 898.094 370.375 898.719 371.906C899.359 373.438 899.703 375.141 899.75 377.016C899.766 377.969 899.711 379.102 899.586 380.414ZM894.102 379.922L894.219 378.211C894.266 376.195 893.93 374.633 893.211 373.523C892.508 372.414 891.445 371.844 890.023 371.812C887.93 371.75 886.117 372.711 884.586 374.695L882.617 386.016C883.32 387.906 884.75 388.883 886.906 388.945C888.75 388.992 890.297 388.273 891.547 386.789C892.812 385.305 893.664 383.016 894.102 379.922Z" fill="black"/>
<path d="M902.703 393L907.109 367.641L916.812 367.664C919.125 367.727 921.047 368.094 922.578 368.766C925.141 369.906 926.352 371.805 926.211 374.461C926.055 376.961 924.352 378.844 921.102 380.109C922.414 380.5 923.445 381.172 924.195 382.125C924.961 383.078 925.328 384.227 925.297 385.57C925.219 387.883 924.266 389.688 922.438 390.984C920.625 392.281 918.125 392.953 914.938 393H902.703ZM910.156 382.195L909.055 388.5L914.773 388.523C916.289 388.477 917.477 388.164 918.336 387.586C919.211 387.008 919.719 386.211 919.859 385.195C920.016 384.305 919.812 383.602 919.25 383.086C918.703 382.555 917.789 382.266 916.508 382.219L910.156 382.195ZM910.836 378.117L915.102 378.141C918.414 378.141 920.242 377.125 920.586 375.094C920.727 374.188 920.492 373.492 919.883 373.008C919.289 372.508 918.211 372.234 916.648 372.188L911.891 372.164L910.836 378.117Z" fill="black"/>
<path d="M940.531 393.469C938.328 393.422 936.414 392.867 934.789 391.805C933.18 390.742 931.984 389.289 931.203 387.445C930.438 385.602 930.148 383.547 930.336 381.281L930.406 380.32C930.688 377.742 931.438 375.43 932.656 373.383C933.891 371.32 935.422 369.758 937.25 368.695C939.078 367.633 941.062 367.125 943.203 367.172C946.375 367.234 948.75 368.414 950.328 370.711C951.922 373.008 952.523 376 952.133 379.688L951.805 382.125H935.844C935.703 384.141 936.109 385.766 937.062 387C938.016 388.234 939.328 388.867 941 388.898C943.391 388.977 945.594 387.938 947.609 385.781L950.422 388.734C949.359 390.25 947.961 391.43 946.227 392.273C944.492 393.102 942.594 393.5 940.531 393.469ZM942.898 371.719C939.961 371.625 937.758 373.703 936.289 377.953L946.812 377.977L946.906 377.484C947.016 376.766 947.023 376.062 946.93 375.375C946.758 374.266 946.32 373.391 945.617 372.75C944.914 372.109 944.008 371.766 942.898 371.719Z" fill="black"/>
<path d="M978.008 380.414C977.695 382.945 977.016 385.242 975.969 387.305C974.938 389.367 973.617 390.93 972.008 391.992C970.414 393.039 968.625 393.539 966.641 393.492C964 393.43 961.922 392.492 960.406 390.68L958.133 402.75H952.555L958.648 367.641L963.734 367.617L963.312 370.242C965.25 368.133 967.555 367.109 970.227 367.172C971.836 367.188 973.234 367.602 974.422 368.414C975.609 369.211 976.516 370.375 977.141 371.906C977.781 373.438 978.125 375.141 978.172 377.016C978.188 377.969 978.133 379.102 978.008 380.414ZM972.523 379.922L972.641 378.211C972.688 376.195 972.352 374.633 971.633 373.523C970.93 372.414 969.867 371.844 968.445 371.812C966.352 371.75 964.539 372.711 963.008 374.695L961.039 386.016C961.742 387.906 963.172 388.883 965.328 388.945C967.172 388.992 968.719 388.273 969.969 386.789C971.234 385.305 972.086 383.016 972.523 379.922Z" fill="black"/>
<path d="M992.188 393.469C989.984 393.422 988.07 392.867 986.445 391.805C984.836 390.742 983.641 389.289 982.859 387.445C982.094 385.602 981.805 383.547 981.992 381.281L982.062 380.32C982.344 377.742 983.094 375.43 984.312 373.383C985.547 371.32 987.078 369.758 988.906 368.695C990.734 367.633 992.719 367.125 994.859 367.172C998.031 367.234 1000.41 368.414 1001.98 370.711C1003.58 373.008 1004.18 376 1003.79 379.688L1003.46 382.125H987.5C987.359 384.141 987.766 385.766 988.719 387C989.672 388.234 990.984 388.867 992.656 388.898C995.047 388.977 997.25 387.938 999.266 385.781L1002.08 388.734C1001.02 390.25 999.617 391.43 997.883 392.273C996.148 393.102 994.25 393.5 992.188 393.469ZM994.555 371.719C991.617 371.625 989.414 373.703 987.945 377.953L998.469 377.977L998.562 377.484C998.672 376.766 998.68 376.062 998.586 375.375C998.414 374.266 997.977 373.391 997.273 372.75C996.57 372.109 995.664 371.766 994.555 371.719Z" fill="black"/>
<path d="M1038.69 393H1033.11L1036.72 372.234H1027.18L1023.57 393H1017.99L1022.4 367.641H1043.09L1038.69 393Z" fill="black"/>
<path d="M1046.12 380.227C1046.38 377.742 1047.11 375.484 1048.3 373.453C1049.5 371.422 1051.04 369.852 1052.91 368.742C1054.79 367.633 1056.87 367.109 1059.15 367.172C1061.32 367.203 1063.2 367.781 1064.77 368.906C1066.35 370.031 1067.5 371.57 1068.22 373.523C1068.95 375.477 1069.21 377.648 1068.99 380.039C1068.74 382.727 1068.01 385.102 1066.79 387.164C1065.59 389.227 1064.04 390.812 1062.15 391.922C1060.27 393.016 1058.19 393.531 1055.89 393.469C1053.73 393.438 1051.87 392.867 1050.29 391.758C1048.73 390.633 1047.58 389.102 1046.84 387.164C1046.11 385.211 1045.84 383.062 1046.05 380.719L1046.12 380.227ZM1051.58 383.438C1051.66 385.078 1052.09 386.398 1052.87 387.398C1053.66 388.383 1054.77 388.898 1056.17 388.945C1058.08 388.992 1059.67 388.258 1060.95 386.742C1062.25 385.227 1063.06 383.156 1063.39 380.531L1063.53 378.234C1063.53 376.234 1063.13 374.664 1062.34 373.523C1061.54 372.383 1060.38 371.781 1058.87 371.719C1056.49 371.656 1054.62 372.82 1053.24 375.211C1052.41 376.664 1051.89 378.336 1051.67 380.227C1051.55 381.539 1051.52 382.609 1051.58 383.438Z" fill="black"/>
<path d="M1081.74 367.641L1078.11 388.453H1085.75L1089.38 367.641H1094.94L1091.33 388.453H1098.99L1102.6 367.641H1108.16L1103.75 393H1071.76L1076.16 367.641H1081.74Z" fill="black"/>
<path d="M1135.27 367.641L1130.89 393H1125.31L1128.92 372.234H1122.03L1119.71 382.828C1118.88 386.422 1117.67 389.023 1116.08 390.633C1114.48 392.227 1112.45 393.016 1109.96 393H1108.04L1108.55 388.289L1109.4 388.219C1110.82 388.094 1111.98 387.445 1112.87 386.273C1113.77 385.086 1114.47 383.125 1114.95 380.391L1115.3 378.469L1117.55 367.641H1135.27Z" fill="black"/>
<path d="M1138.32 380.227C1138.59 377.742 1139.31 375.484 1140.5 373.453C1141.7 371.422 1143.24 369.852 1145.12 368.742C1146.99 367.633 1149.07 367.109 1151.35 367.172C1153.52 367.203 1155.4 367.781 1156.98 368.906C1158.55 370.031 1159.7 371.57 1160.42 373.523C1161.16 375.477 1161.41 377.648 1161.2 380.039C1160.95 382.727 1160.21 385.102 1158.99 387.164C1157.79 389.227 1156.24 390.812 1154.35 391.922C1152.48 393.016 1150.39 393.531 1148.09 393.469C1145.94 393.438 1144.07 392.867 1142.49 391.758C1140.93 390.633 1139.78 389.102 1139.05 387.164C1138.31 385.211 1138.05 383.062 1138.25 380.719L1138.32 380.227ZM1143.78 383.438C1143.86 385.078 1144.29 386.398 1145.07 387.398C1145.87 388.383 1146.97 388.898 1148.38 388.945C1150.28 388.992 1151.88 388.258 1153.16 386.742C1154.45 385.227 1155.27 383.156 1155.59 380.531L1155.73 378.234C1155.73 376.234 1155.34 374.664 1154.54 373.523C1153.74 372.383 1152.59 371.781 1151.07 371.719C1148.7 371.656 1146.82 372.82 1145.45 375.211C1144.62 376.664 1144.09 378.336 1143.88 380.227C1143.75 381.539 1143.72 382.609 1143.78 383.438Z" fill="black"/>
<path d="M775.344 449H769.789L771.43 440.492C770.008 440.836 768.539 441.008 767.023 441.008C763.992 440.977 761.664 440.102 760.039 438.383C758.43 436.664 757.773 434.336 758.07 431.398L759.312 423.617H764.891L763.625 431.422C763.531 432.172 763.523 432.844 763.602 433.438C763.789 435.328 765.023 436.32 767.305 436.414C768.602 436.461 770.141 436.305 771.922 435.945L774.195 423.641H779.75L775.344 449Z" fill="black"/>
<path d="M804.219 428.164H796.25L792.617 449H787.062L790.672 428.164H782.773L783.57 423.641H805.016L804.219 428.164Z" fill="black"/>
<path d="M805.133 436.227C805.398 433.742 806.125 431.484 807.312 429.453C808.516 427.422 810.055 425.852 811.93 424.742C813.805 423.633 815.883 423.109 818.164 423.172C820.336 423.203 822.211 423.781 823.789 424.906C825.367 426.031 826.516 427.57 827.234 429.523C827.969 431.477 828.227 433.648 828.008 436.039C827.758 438.727 827.023 441.102 825.805 443.164C824.602 445.227 823.055 446.812 821.164 447.922C819.289 449.016 817.203 449.531 814.906 449.469C812.75 449.438 810.883 448.867 809.305 447.758C807.742 446.633 806.594 445.102 805.859 443.164C805.125 441.211 804.859 439.062 805.062 436.719L805.133 436.227ZM810.594 439.438C810.672 441.078 811.102 442.398 811.883 443.398C812.68 444.383 813.781 444.898 815.188 444.945C817.094 444.992 818.688 444.258 819.969 442.742C821.266 441.227 822.078 439.156 822.406 436.531L822.547 434.234C822.547 432.234 822.148 430.664 821.352 429.523C820.555 428.383 819.398 427.781 817.883 427.719C815.508 427.656 813.633 428.82 812.258 431.211C811.43 432.664 810.906 434.336 810.688 436.227C810.562 437.539 810.531 438.609 810.594 439.438Z" fill="black"/>
<path d="M843.43 436.789H831.453L832.273 432.195H844.25L843.43 436.789Z" fill="black"/>
<path d="M869.094 428.164H861.125L857.492 449H851.938L855.547 428.164H847.648L848.445 423.641H869.891L869.094 428.164Z" fill="black"/>
<path d="M870.008 436.227C870.273 433.742 871 431.484 872.188 429.453C873.391 427.422 874.93 425.852 876.805 424.742C878.68 423.633 880.758 423.109 883.039 423.172C885.211 423.203 887.086 423.781 888.664 424.906C890.242 426.031 891.391 427.57 892.109 429.523C892.844 431.477 893.102 433.648 892.883 436.039C892.633 438.727 891.898 441.102 890.68 443.164C889.477 445.227 887.93 446.812 886.039 447.922C884.164 449.016 882.078 449.531 879.781 449.469C877.625 449.438 875.758 448.867 874.18 447.758C872.617 446.633 871.469 445.102 870.734 443.164C870 441.211 869.734 439.062 869.938 436.719L870.008 436.227ZM875.469 439.438C875.547 441.078 875.977 442.398 876.758 443.398C877.555 444.383 878.656 444.898 880.062 444.945C881.969 444.992 883.562 444.258 884.844 442.742C886.141 441.227 886.953 439.156 887.281 436.531L887.422 434.234C887.422 432.234 887.023 430.664 886.227 429.523C885.43 428.383 884.273 427.781 882.758 427.719C880.383 427.656 878.508 428.82 877.133 431.211C876.305 432.664 875.781 434.336 875.562 436.227C875.438 437.539 875.406 438.609 875.469 439.438Z" fill="black"/>
<path d="M928.18 449H922.602L924.383 438.758H914.867L913.086 449H907.508L911.914 423.641H917.492L915.641 434.211H925.18L927.008 423.641H932.586L928.18 449Z" fill="black"/>
<path d="M945.734 449.469C943.531 449.422 941.617 448.867 939.992 447.805C938.383 446.742 937.188 445.289 936.406 443.445C935.641 441.602 935.352 439.547 935.539 437.281L935.609 436.32C935.891 433.742 936.641 431.43 937.859 429.383C939.094 427.32 940.625 425.758 942.453 424.695C944.281 423.633 946.266 423.125 948.406 423.172C951.578 423.234 953.953 424.414 955.531 426.711C957.125 429.008 957.727 432 957.336 435.688L957.008 438.125H941.047C940.906 440.141 941.312 441.766 942.266 443C943.219 444.234 944.531 444.867 946.203 444.898C948.594 444.977 950.797 443.938 952.812 441.781L955.625 444.734C954.562 446.25 953.164 447.43 951.43 448.273C949.695 449.102 947.797 449.5 945.734 449.469ZM948.102 427.719C945.164 427.625 942.961 429.703 941.492 433.953L952.016 433.977L952.109 433.484C952.219 432.766 952.227 432.062 952.133 431.375C951.961 430.266 951.523 429.391 950.82 428.75C950.117 428.109 949.211 427.766 948.102 427.719Z" fill="black"/>
<path d="M994.344 428.164H986.375L982.742 449H977.188L980.797 428.164H972.898L973.695 423.641H995.141L994.344 428.164Z" fill="black"/>
<path d="M1009.32 449C1009.13 448.375 1009.05 447.586 1009.09 446.633C1006.99 448.586 1004.73 449.531 1002.31 449.469C1000.11 449.438 998.281 448.734 996.828 447.359C995.391 445.969 994.719 444.211 994.812 442.086C994.938 439.414 996.094 437.312 998.281 435.781C1000.47 434.25 1003.41 433.484 1007.09 433.484L1010.7 433.531L1011.03 431.797C1011.12 431.188 1011.12 430.617 1011.03 430.086C1010.72 428.398 1009.6 427.531 1007.68 427.484C1006.49 427.453 1005.45 427.758 1004.54 428.398C1003.65 429.023 1003.1 429.867 1002.9 430.93L997.344 430.977C997.453 429.414 998.008 428.047 999.008 426.875C1000.01 425.688 1001.34 424.766 1002.99 424.109C1004.65 423.453 1006.4 423.141 1008.24 423.172C1011.01 423.234 1013.16 424.07 1014.71 425.68C1016.26 427.273 1016.9 429.344 1016.63 431.891L1014.69 443.773L1014.5 445.883C1014.45 446.805 1014.57 447.703 1014.85 448.578L1014.83 449H1009.32ZM1003.6 444.922C1004.77 444.953 1005.86 444.688 1006.86 444.125C1007.86 443.547 1008.71 442.805 1009.41 441.898L1010.28 437.094L1007.63 437.07C1005.54 437.07 1003.87 437.469 1002.62 438.266C1001.37 439.047 1000.66 440.125 1000.48 441.5C1000.36 442.547 1000.59 443.375 1001.16 443.984C1001.76 444.578 1002.57 444.891 1003.6 444.922Z" fill="black"/>
<path d="M1030.39 438.969H1027.44L1025.68 449H1020.12L1024.53 423.641H1030.09L1028.33 433.766H1030.53L1039.09 423.641H1046.35L1035.08 436.062L1042.3 449H1035.48L1030.39 438.969Z" fill="black"/>
<path d="M1046.47 446.258C1046.47 445.305 1046.77 444.531 1047.36 443.938C1047.97 443.328 1048.74 443.008 1049.68 442.977C1050.6 442.945 1051.37 443.227 1051.98 443.82C1052.6 444.398 1052.91 445.148 1052.91 446.07C1052.91 446.977 1052.62 447.734 1052.02 448.344C1051.43 448.938 1050.66 449.25 1049.7 449.281C1048.78 449.312 1048.01 449.039 1047.38 448.461C1046.77 447.883 1046.47 447.148 1046.47 446.258Z" fill="black"/>
<path d="M1059.73 446.258C1059.73 445.305 1060.03 444.531 1060.62 443.938C1061.23 443.328 1062.01 443.008 1062.95 442.977C1063.87 442.945 1064.63 443.227 1065.24 443.82C1065.87 444.398 1066.18 445.148 1066.18 446.07C1066.18 446.977 1065.88 447.734 1065.29 448.344C1064.7 448.938 1063.92 449.25 1062.97 449.281C1062.05 449.312 1061.27 449.039 1060.65 448.461C1060.04 447.883 1059.73 447.148 1059.73 446.258Z" fill="black"/>
<path d="M1073 446.258C1073 445.305 1073.3 444.531 1073.89 443.938C1074.5 443.328 1075.27 443.008 1076.21 442.977C1077.13 442.945 1077.9 443.227 1078.51 443.82C1079.13 444.398 1079.45 445.148 1079.45 446.07C1079.45 446.977 1079.15 447.734 1078.55 448.344C1077.96 448.938 1077.19 449.25 1076.23 449.281C1075.31 449.312 1074.54 449.039 1073.91 448.461C1073.3 447.883 1073 447.148 1073 446.258Z" fill="black"/>
<defs>
<clipPath id="clip0">
<rect width="651" height="566" fill="white" transform="translate(104 103)"/>
</clipPath>
</defs>
</svg>
