<svg width="916" height="553" viewBox="0 0 916 553" fill="none" xmlns="http://www.w3.org/2000/svg">
<path d="M575.87 303.03H12C5.39997 303.03 0 297.63 0 291.03V12C0 5.4 5.39997 0 12 0H575.87C582.47 0 587.87 5.4 587.87 12V291.03C587.87 297.63 582.47 303.03 575.87 303.03Z" fill="#6386FF"/>
<path d="M560.11 291.96H26.44C18.39 291.96 11.87 285.44 11.87 277.39V36.33C11.87 28.28 18.39 21.76 26.44 21.76H560.11C568.16 21.76 574.68 28.28 574.68 36.33V277.38C574.68 285.43 568.16 291.96 560.11 291.96Z" fill="#C8E3FF"/>
<path d="M40.5293 74.3516C38.8652 74.3164 37.4004 73.918 36.1348 73.1562C34.8809 72.3945 33.9023 71.293 33.1992 69.8516C32.4961 68.3984 32.0977 66.752 32.0039 64.9121C31.9219 63.4473 32.0508 61.7363 32.3906 59.7793C32.7422 57.8223 33.3574 56.041 34.2363 54.4355C35.127 52.8184 36.1875 51.5 37.418 50.4805C39.4453 48.8164 41.7891 48.0078 44.4492 48.0547C46.9805 48.1016 48.9961 48.9746 50.4961 50.6738C52.0078 52.373 52.834 54.6699 52.9746 57.5645C53.0449 59.0176 52.9102 60.6875 52.5703 62.5742C52.2422 64.4492 51.668 66.1777 50.8477 67.7598C50.0391 69.3301 49.0312 70.6426 47.8242 71.6973C45.7383 73.5254 43.3066 74.4102 40.5293 74.3516ZM48.5273 60.5176L48.6855 58.6543C48.7559 57.377 48.6445 56.1992 48.3516 55.1211C48.0586 54.0312 47.5605 53.2051 46.8574 52.6426C46.166 52.0684 45.2871 51.7637 44.2207 51.7285C42.7441 51.6816 41.4316 52.0977 40.2832 52.9766C39.1465 53.8555 38.2207 55.1914 37.5059 56.9844C36.8027 58.7773 36.3926 61.0273 36.2754 63.7344C36.1582 65.8789 36.4863 67.5664 37.2598 68.7969C38.0332 70.0273 39.1934 70.666 40.7402 70.7129C42.7676 70.7715 44.4375 70.0098 45.75 68.4277C47.0742 66.8457 47.9414 64.6191 48.3516 61.748L48.5273 60.5176ZM62.2207 54.9805L59.4961 70.5898H65.2266L67.9512 54.9805H72.1172L69.4102 70.5898H75.1582L77.8652 54.9805H82.0312L78.7266 74H54.7324L58.0371 54.9805H62.2207ZM98.0625 54.9805H102.352L99.0469 74H94.8809L97.0605 61.5898L87.8145 74H83.5254L86.8301 54.9805H90.9961L88.8164 67.3906L98.0625 54.9805ZM115.113 56.0352C117.293 56.082 118.986 56.9141 120.193 58.5312C121.412 60.1484 121.916 62.2168 121.705 64.7363C121.447 67.6309 120.428 69.9746 118.646 71.7676C116.877 73.5605 114.68 74.4336 112.055 74.3867C110.426 74.3398 109.025 73.9004 107.854 73.0684C106.693 72.2363 105.844 71.0938 105.305 69.6406C104.777 68.1758 104.607 66.5645 104.795 64.8066L104.83 64.4375V64.3848L105.006 63.0664C105.58 59.1289 106.717 55.9941 108.416 53.6621C110.127 51.3301 112.336 49.8711 115.043 49.2852L116.695 48.9688C118.418 48.6289 119.402 47.8613 119.648 46.666H123.041C122.947 47.8379 122.66 48.7988 122.18 49.5488C121.699 50.2988 121.008 50.9199 120.105 51.4121C119.203 51.8926 117.879 52.3027 116.133 52.6426C114.398 52.9707 112.969 53.6152 111.844 54.5762C110.73 55.5371 109.793 56.9023 109.031 58.6719C110.883 56.8906 112.91 56.0117 115.113 56.0352ZM114.059 59.4453C113.133 59.4219 112.301 59.6387 111.562 60.0957C110.836 60.541 110.244 61.1738 109.787 61.9941C109.342 62.8145 109.055 63.7578 108.926 64.8242C108.844 65.6914 108.826 66.4648 108.873 67.1445C108.955 68.3164 109.283 69.2422 109.857 69.9219C110.432 70.5898 111.234 70.9414 112.266 70.9766C113.637 71.0117 114.791 70.5137 115.729 69.4824C116.666 68.4512 117.258 66.998 117.504 65.123L117.539 64.7539C117.691 63.125 117.463 61.8418 116.854 60.9043C116.256 59.9668 115.324 59.4805 114.059 59.4453ZM131.109 66.4766H128.895L127.576 74H123.41L126.715 54.9805H130.881L129.562 62.5742H131.215L137.631 54.9805H143.08L134.625 64.2969L140.039 74H134.924L131.109 66.4766ZM153.908 74C153.768 73.5312 153.709 72.9395 153.732 72.2246C152.162 73.6895 150.469 74.3984 148.652 74.3516C147 74.3281 145.629 73.8008 144.539 72.7695C143.461 71.7266 142.957 70.4082 143.027 68.8145C143.121 66.8105 143.988 65.2344 145.629 64.0859C147.27 62.9375 149.473 62.3633 152.238 62.3633L154.945 62.3984L155.191 61.0977C155.262 60.6406 155.262 60.2129 155.191 59.8145C154.957 58.5488 154.119 57.8984 152.678 57.8633C151.787 57.8398 151.002 58.0684 150.322 58.5488C149.654 59.0176 149.244 59.6504 149.092 60.4473L144.926 60.4824C145.008 59.3105 145.424 58.2852 146.174 57.4062C146.924 56.5156 147.92 55.8242 149.162 55.332C150.404 54.8398 151.717 54.6055 153.1 54.6289C155.174 54.6758 156.791 55.3027 157.951 56.5098C159.111 57.7051 159.592 59.2578 159.393 61.168L157.934 70.0801L157.793 71.6621C157.758 72.3535 157.846 73.0273 158.057 73.6836L158.039 74H153.908ZM149.619 70.9414C150.498 70.9648 151.312 70.7656 152.062 70.3438C152.812 69.9102 153.451 69.3535 153.979 68.6738L154.629 65.0703L152.643 65.0527C151.072 65.0527 149.818 65.3516 148.881 65.9492C147.943 66.5352 147.41 67.3438 147.281 68.375C147.188 69.1602 147.357 69.7812 147.791 70.2383C148.236 70.6836 148.846 70.918 149.619 70.9414ZM185.953 64.877H189.047L188.449 68.3047H185.373L184.371 74H180.205L181.189 68.3047H170.467L170.836 65.4922L184.371 48.4062H188.818L185.953 64.877ZM175.441 64.877H181.787L183.773 54.1367L183.352 54.7344L175.441 64.877ZM198.768 74.3516C196.553 74.3047 194.877 73.543 193.74 72.0664C192.604 70.5781 192.053 68.498 192.088 65.8262C192.1 64.959 192.158 64.0918 192.264 63.2246L192.949 58.6543C193.523 55.0684 194.631 52.3906 196.271 50.6211C197.912 48.8516 200.033 47.9961 202.635 48.0547C204.838 48.1016 206.508 48.8516 207.645 50.3047C208.793 51.7578 209.35 53.8203 209.314 56.4922C209.303 57.3711 209.244 58.2383 209.139 59.0938L208.453 63.541C207.855 67.209 206.742 69.9453 205.113 71.75C203.496 73.543 201.381 74.4102 198.768 74.3516ZM205.078 58.4082C205.23 57.0723 205.307 56.123 205.307 55.5605C205.248 52.9121 204.281 51.5469 202.406 51.4648C200.977 51.4062 199.828 51.9277 198.961 53.0293C198.094 54.1309 197.484 55.8828 197.133 58.2852L196.324 63.8574C196.184 65.0645 196.119 66.0195 196.131 66.7227C196.131 69.4648 197.092 70.877 199.014 70.959C201.662 71.1113 203.367 69.043 204.129 64.7539L205.078 58.4082ZM226.031 64.877H229.125L228.527 68.3047H225.451L224.449 74H220.283L221.268 68.3047H210.545L210.914 65.4922L224.449 48.4062H228.896L226.031 64.877ZM215.52 64.877H221.865L223.852 54.1367L223.43 54.7344L215.52 64.877ZM50.9883 107.65C50.5547 110.322 49.3535 112.455 47.3848 114.049C45.416 115.631 43.0195 116.398 40.1953 116.352C38.5664 116.316 37.1367 115.93 35.9062 115.191C34.6875 114.453 33.7324 113.381 33.041 111.975C32.3496 110.557 31.9629 108.957 31.8809 107.176C31.8105 105.84 31.9746 104.023 32.373 101.727C32.7715 99.418 33.5332 97.3496 34.6582 95.5215C35.7949 93.6934 37.1836 92.3164 38.8242 91.3906C40.4766 90.4648 42.3105 90.0195 44.3262 90.0547C46.8691 90.1016 48.8789 90.9043 50.3555 92.4629C51.8438 94.0098 52.6348 96.1484 52.7285 98.8789H48.4219C48.3633 97.0508 47.9766 95.7324 47.2617 94.9238C46.5586 94.1035 45.5098 93.6758 44.1152 93.6406C42.2051 93.582 40.6055 94.2676 39.3164 95.6973C38.0273 97.127 37.1602 99.207 36.7148 101.938L36.3633 104.275L36.2051 106.068C36.1113 107.275 36.1934 108.412 36.4512 109.479C36.7207 110.533 37.1895 111.342 37.8574 111.904C38.5254 112.455 39.375 112.748 40.4062 112.783C43.6758 112.912 45.7734 111.213 46.6992 107.686L50.9883 107.65ZM70.5352 100.373H64.5586L61.834 116H57.668L60.375 100.373H54.4512L55.0488 96.9805H71.1328L70.5352 100.373ZM88.5527 106.561C88.3184 108.459 87.8086 110.182 87.0234 111.729C86.25 113.275 85.2598 114.447 84.0527 115.244C82.8574 116.029 81.5156 116.404 80.0273 116.369C78.0469 116.322 76.4883 115.619 75.3516 114.26L73.6465 123.312H69.4629L74.0332 96.9805L77.8477 96.9629L77.5312 98.9316C78.9844 97.3496 80.7129 96.582 82.7168 96.6289C83.9238 96.6406 84.9727 96.9512 85.8633 97.5605C86.7539 98.1582 87.4336 99.0312 87.9023 100.18C88.3828 101.328 88.6406 102.605 88.6758 104.012C88.6875 104.727 88.6465 105.576 88.5527 106.561ZM84.4395 106.191L84.5273 104.908C84.5625 103.396 84.3105 102.225 83.7715 101.393C83.2441 100.561 82.4473 100.133 81.3809 100.109C79.8105 100.062 78.4512 100.783 77.3027 102.271L75.8262 110.762C76.3535 112.18 77.4258 112.912 79.043 112.959C80.4258 112.994 81.5859 112.455 82.5234 111.342C83.4727 110.229 84.1113 108.512 84.4395 106.191ZM101.877 116C101.736 115.531 101.678 114.939 101.701 114.225C100.131 115.689 98.4375 116.398 96.6211 116.352C94.9688 116.328 93.5977 115.801 92.5078 114.77C91.4297 113.727 90.9258 112.408 90.9961 110.814C91.0898 108.811 91.957 107.234 93.5977 106.086C95.2383 104.938 97.4414 104.363 100.207 104.363L102.914 104.398L103.16 103.098C103.23 102.641 103.23 102.213 103.16 101.814C102.926 100.549 102.088 99.8984 100.646 99.8633C99.7559 99.8398 98.9707 100.068 98.291 100.549C97.623 101.018 97.2129 101.65 97.0605 102.447L92.8945 102.482C92.9766 101.311 93.3926 100.285 94.1426 99.4062C94.8926 98.5156 95.8887 97.8242 97.1309 97.332C98.373 96.8398 99.6855 96.6055 101.068 96.6289C103.143 96.6758 104.76 97.3027 105.92 98.5098C107.08 99.7051 107.561 101.258 107.361 103.168L105.902 112.08L105.762 113.662C105.727 114.354 105.814 115.027 106.025 115.684L106.008 116H101.877ZM97.5879 112.941C98.4668 112.965 99.2812 112.766 100.031 112.344C100.781 111.91 101.42 111.354 101.947 110.674L102.598 107.07L100.611 107.053C99.041 107.053 97.7871 107.352 96.8496 107.949C95.9121 108.535 95.3789 109.344 95.25 110.375C95.1562 111.16 95.3262 111.781 95.7598 112.238C96.2051 112.684 96.8145 112.918 97.5879 112.941ZM125.326 116H121.143L122.479 108.318H115.342L114.006 116H109.822L113.127 96.9805H117.311L115.922 104.908H123.076L124.447 96.9805H128.631L125.326 116ZM144.574 96.9805H148.863L145.559 116H141.393L143.572 103.59L134.326 116H130.037L133.342 96.9805H137.508L135.328 109.391L144.574 96.9805ZM153.592 96.9805H157.775L155.051 112.59H162.223L164.93 96.9805H169.113L166.389 112.59H168.92L167.004 121.643H163.189L164.174 116H150.287L153.592 96.9805ZM182.666 116C182.525 115.531 182.467 114.939 182.49 114.225C180.92 115.689 179.227 116.398 177.41 116.352C175.758 116.328 174.387 115.801 173.297 114.77C172.219 113.727 171.715 112.408 171.785 110.814C171.879 108.811 172.746 107.234 174.387 106.086C176.027 104.938 178.23 104.363 180.996 104.363L183.703 104.398L183.949 103.098C184.02 102.641 184.02 102.213 183.949 101.814C183.715 100.549 182.877 99.8984 181.436 99.8633C180.545 99.8398 179.76 100.068 179.08 100.549C178.412 101.018 178.002 101.65 177.85 102.447L173.684 102.482C173.766 101.311 174.182 100.285 174.932 99.4062C175.682 98.5156 176.678 97.8242 177.92 97.332C179.162 96.8398 180.475 96.6055 181.857 96.6289C183.932 96.6758 185.549 97.3027 186.709 98.5098C187.869 99.7051 188.35 101.258 188.15 103.168L186.691 112.08L186.551 113.662C186.516 114.354 186.604 115.027 186.814 115.684L186.797 116H182.666ZM178.377 112.941C179.256 112.965 180.07 112.766 180.82 112.344C181.57 111.91 182.209 111.354 182.736 110.674L183.387 107.07L181.4 107.053C179.83 107.053 178.576 107.352 177.639 107.949C176.701 108.535 176.168 109.344 176.039 110.375C175.945 111.16 176.115 111.781 176.549 112.238C176.994 112.684 177.604 112.918 178.377 112.941ZM215.01 116H210.826L212.162 108.318H205.025L203.689 116H199.506L202.811 96.9805H206.994L205.605 104.908H212.76L214.131 96.9805H218.314L215.01 116ZM228.176 116.352C226.523 116.316 225.088 115.9 223.869 115.104C222.662 114.307 221.766 113.217 221.18 111.834C220.605 110.451 220.389 108.91 220.529 107.211L220.582 106.49C220.793 104.557 221.355 102.822 222.27 101.287C223.195 99.7402 224.344 98.5684 225.715 97.7715C227.086 96.9746 228.574 96.5938 230.18 96.6289C232.559 96.6758 234.34 97.5605 235.523 99.2832C236.719 101.006 237.17 103.25 236.877 106.016L236.631 107.844H224.66C224.555 109.355 224.859 110.574 225.574 111.5C226.289 112.426 227.273 112.9 228.527 112.924C230.32 112.982 231.973 112.203 233.484 110.586L235.594 112.801C234.797 113.938 233.748 114.822 232.447 115.455C231.146 116.076 229.723 116.375 228.176 116.352ZM229.951 100.039C227.748 99.9688 226.096 101.527 224.994 104.715L232.887 104.732L232.957 104.363C233.039 103.824 233.045 103.297 232.975 102.781C232.846 101.949 232.518 101.293 231.99 100.812C231.463 100.332 230.783 100.074 229.951 100.039ZM263.033 116H258.85L260.186 108.318H253.049L251.713 116H247.529L250.834 96.9805H255.018L253.629 104.908H260.783L262.154 96.9805H266.338L263.033 116ZM278.889 116C278.748 115.531 278.689 114.939 278.713 114.225C277.143 115.689 275.449 116.398 273.633 116.352C271.98 116.328 270.609 115.801 269.52 114.77C268.441 113.727 267.938 112.408 268.008 110.814C268.102 108.811 268.969 107.234 270.609 106.086C272.25 104.938 274.453 104.363 277.219 104.363L279.926 104.398L280.172 103.098C280.242 102.641 280.242 102.213 280.172 101.814C279.938 100.549 279.1 99.8984 277.658 99.8633C276.768 99.8398 275.982 100.068 275.303 100.549C274.635 101.018 274.225 101.65 274.072 102.447L269.906 102.482C269.988 101.311 270.404 100.285 271.154 99.4062C271.904 98.5156 272.9 97.8242 274.143 97.332C275.385 96.8398 276.697 96.6055 278.08 96.6289C280.154 96.6758 281.771 97.3027 282.932 98.5098C284.092 99.7051 284.572 101.258 284.373 103.168L282.914 112.08L282.773 113.662C282.738 114.354 282.826 115.027 283.037 115.684L283.02 116H278.889ZM274.6 112.941C275.479 112.965 276.293 112.766 277.043 112.344C277.793 111.91 278.432 111.354 278.959 110.674L279.609 107.07L277.623 107.053C276.053 107.053 274.799 107.352 273.861 107.949C272.924 108.535 272.391 109.344 272.262 110.375C272.168 111.16 272.338 111.781 272.771 112.238C273.217 112.684 273.826 112.918 274.6 112.941ZM301.371 96.9805H305.66L302.355 116H298.189L300.369 103.59L291.123 116H286.834L290.139 96.9805H294.305L292.125 109.391L301.371 96.9805ZM304.535 89.668C304.418 91.2266 303.814 92.457 302.725 93.3594C301.635 94.2617 300.299 94.6895 298.717 94.6426C297.17 94.6191 295.928 94.1621 294.99 93.2715C294.064 92.3691 293.602 91.168 293.602 89.668L296.695 89.6855C296.637 91.3262 297.311 92.1465 298.717 92.1465C299.502 92.1465 300.117 91.918 300.562 91.4609C301.008 91.0039 301.301 90.418 301.441 89.7031L304.535 89.668ZM307.506 112.643C308.748 111.506 309.744 110.24 310.494 108.846C311.256 107.439 311.818 105.74 312.182 103.748L313.553 96.9805H326.402L323.695 112.59H326.244L324.662 121.66H320.514L321.498 116H309.703L308.719 121.66H304.482L306.082 112.607L307.506 112.643ZM312.41 112.66L319.529 112.59L321.604 100.654H316.98L316.031 105.348C315.293 108.488 314.086 110.926 312.41 112.66ZM337.371 116.352C335.719 116.316 334.283 115.9 333.064 115.104C331.857 114.307 330.961 113.217 330.375 111.834C329.801 110.451 329.584 108.91 329.725 107.211L329.777 106.49C329.988 104.557 330.551 102.822 331.465 101.287C332.391 99.7402 333.539 98.5684 334.91 97.7715C336.281 96.9746 337.77 96.5938 339.375 96.6289C341.754 96.6758 343.535 97.5605 344.719 99.2832C345.914 101.006 346.365 103.25 346.072 106.016L345.826 107.844H333.855C333.75 109.355 334.055 110.574 334.77 111.5C335.484 112.426 336.469 112.9 337.723 112.924C339.516 112.982 341.168 112.203 342.68 110.586L344.789 112.801C343.992 113.938 342.943 114.822 341.643 115.455C340.342 116.076 338.918 116.375 337.371 116.352ZM339.146 100.039C336.943 99.9688 335.291 101.527 334.189 104.715L342.082 104.732L342.152 104.363C342.234 103.824 342.24 103.297 342.17 102.781C342.041 101.949 341.713 101.293 341.186 100.812C340.658 100.332 339.979 100.074 339.146 100.039ZM363.334 116H359.15L360.486 108.318H353.35L352.014 116H347.83L351.135 96.9805H355.318L353.93 104.908H361.084L362.455 96.9805H366.639L363.334 116ZM379.189 116C379.049 115.531 378.99 114.939 379.014 114.225C377.443 115.689 375.75 116.398 373.934 116.352C372.281 116.328 370.91 115.801 369.82 114.77C368.742 113.727 368.238 112.408 368.309 110.814C368.402 108.811 369.27 107.234 370.91 106.086C372.551 104.938 374.754 104.363 377.52 104.363L380.227 104.398L380.473 103.098C380.543 102.641 380.543 102.213 380.473 101.814C380.238 100.549 379.4 99.8984 377.959 99.8633C377.068 99.8398 376.283 100.068 375.604 100.549C374.936 101.018 374.525 101.65 374.373 102.447L370.207 102.482C370.289 101.311 370.705 100.285 371.455 99.4062C372.205 98.5156 373.201 97.8242 374.443 97.332C375.686 96.8398 376.998 96.6055 378.381 96.6289C380.455 96.6758 382.072 97.3027 383.232 98.5098C384.393 99.7051 384.873 101.258 384.674 103.168L383.215 112.08L383.074 113.662C383.039 114.354 383.127 115.027 383.338 115.684L383.32 116H379.189ZM374.9 112.941C375.779 112.965 376.594 112.766 377.344 112.344C378.094 111.91 378.732 111.354 379.26 110.674L379.91 107.07L377.924 107.053C376.354 107.053 375.1 107.352 374.162 107.949C373.225 108.535 372.691 109.344 372.562 110.375C372.469 111.16 372.639 111.781 373.072 112.238C373.518 112.684 374.127 112.918 374.9 112.941Z" fill="black"/>
<path d="M19.61 18.54C23.2275 18.54 26.16 15.6075 26.16 11.99C26.16 8.37253 23.2275 5.44 19.61 5.44C15.9926 5.44 13.06 8.37253 13.06 11.99C13.06 15.6075 15.9926 18.54 19.61 18.54Z" fill="#666666"/>
<path d="M36.84 18.54C40.4575 18.54 43.39 15.6075 43.39 11.99C43.39 8.37253 40.4575 5.44 36.84 5.44C33.2225 5.44 30.29 8.37253 30.29 11.99C30.29 15.6075 33.2225 18.54 36.84 18.54Z" fill="#666666"/>
<path d="M54.15 18.54C57.7675 18.54 60.7 15.6075 60.7 11.99C60.7 8.37253 57.7675 5.44 54.15 5.44C50.5325 5.44 47.6 8.37253 47.6 11.99C47.6 15.6075 50.5325 18.54 54.15 18.54Z" fill="#666666"/>
<path d="M587.87 170.9H609.1C611.35 170.9 613.19 169.06 613.19 166.81V99.29C613.19 97.04 611.35 95.2 609.1 95.2H587.87V170.9Z" fill="#394981"/>
<path d="M291.56 495.63C285.89 491.9 279.75 486.68 274.55 479.41C271.01 474.46 269.06 470.17 266.24 463.98C262.72 456.25 260.77 450.4 257.93 441.83C248.77 414.09 249.7 416.1 248.44 412.95C242.58 398.39 240.47 393.59 232.75 383.73C231.02 381.52 223.22 374.33 211.25 371.79C201.3 369.67 195.81 369.49 174.57 378.83C159.91 385.27 152.24 390.02 145.14 391.6C128.99 395.21 109.84 390.33 103.65 378.54C103.08 377.45 100.24 372 102.46 367.46C105.16 361.96 109.48 360.89 114.33 361.53C124.16 362.82 128.97 373.54 140.44 374.58C151.25 375.56 153.7 368.79 173.54 360.47C183.83 356.15 200.72 349.01 217.45 350.77C222.99 351.35 238.12 354.66 252.26 368.78C262.99 379.48 266.72 392.45 270.99 407.29C274.87 420.77 274.8 428.62 281.54 441.58C285.23 448.67 289.24 453.99 292.09 457.4L291.56 495.63Z" fill="#88B6FF" stroke="#88B6FF" stroke-width="5" stroke-miterlimit="10"/>
<path d="M536.19 483.11C536.19 543.96 478.49 538.95 423.03 539.2C357.44 539.5 295.1 543.96 295.1 483.11C295.1 422.26 357.4 316.23 412.86 316.23C468.32 316.24 536.19 422.27 536.19 483.11Z" fill="#4687FF" stroke="#4687FF" stroke-width="10" stroke-miterlimit="10"/>
<path d="M415.65 369.49C463.279 369.49 501.89 332.177 501.89 286.15C501.89 240.123 463.279 202.81 415.65 202.81C368.021 202.81 329.41 240.123 329.41 286.15C329.41 332.177 368.021 369.49 415.65 369.49Z" fill="#4687FF" stroke="#4687FF" stroke-width="10" stroke-miterlimit="10"/>
<path d="M448.1 217.45C448.83 215.92 449.26 216.05 466.83 206.24C480.26 198.74 485.7 194.56 494.92 193.2C500.49 192.38 503.54 192.75 506.26 193.98C517.91 199.26 518.04 225.06 512.99 242.77C510.06 253.02 506.19 266.58 496.37 269.67C475.88 276.13 440.46 233.6 448.1 217.45Z" fill="#4669FF" stroke="#4669FF" stroke-width="10" stroke-miterlimit="10"/>
<path d="M380.98 217.45C380.25 215.92 379.82 216.05 362.25 206.24C348.82 198.74 343.38 194.56 334.16 193.2C328.59 192.38 325.54 192.75 322.82 193.98C311.17 199.26 311.04 225.06 316.09 242.77C319.02 253.02 322.89 266.58 332.71 269.67C353.2 276.13 388.61 233.6 380.98 217.45Z" fill="#4687FF" stroke="#4687FF" stroke-width="10" stroke-miterlimit="10"/>
<path d="M613.19 134.77C624.71 134.77 629.55 136.73 648 138.46C664.82 140.04 680.65 143.9 701.01 142.42C730.77 140.26 733.54 132.05 753.23 133.72C772.61 135.36 786.56 142.41 797.54 147.96C825.67 162.19 842.26 181.4 852.13 193.06C861.47 204.09 874.76 219.71 883.78 243.7C892.19 266.05 887.31 270.15 897.23 303.83C905.78 332.84 910.52 333.64 910.68 348.14C910.98 375.92 893.83 396.53 889.32 401.94C886.23 405.65 872.38 421.7 848.97 430.42C831.86 436.8 827.78 432.51 803.87 439.91C788.81 444.58 777.35 450.33 768.27 454.94C742.19 468.17 742.53 473.04 728.71 476.3C725.35 477.09 712.71 476.58 687.57 475.51C662.88 474.46 656.96 474.02 647.22 476.3C634.27 479.34 635.74 482.24 621.9 485.79C602.21 490.85 585.64 488.48 578.38 487.37C572.62 486.49 566.66 485.14 552.27 480.25C539.2 475.81 521.18 469.13 499.79 459.41" stroke="#394981" stroke-width="10" stroke-miterlimit="10"/>
<path d="M522.52 419.68C522.6 419.86 522.62 420.06 522.57 420.24C521 426.3 519.23 431.32 517.73 435.1C514.37 443.57 512.21 449.04 507.08 454.65C501.86 460.36 496.01 463.44 494.84 464.05C490.79 466.17 487.97 468.1 481.65 468.1C478.13 468.1 472.52 468.1 466.81 463.65C464.41 461.78 461.64 456.19 461.17 454.85C460.52 453 460.02 449.64 460.63 445.62C460.83 444.3 460.92 441.59 462.85 439.03C464.35 437.05 466.43 435.12 470 433.89C478.54 430.94 480.46 432.16 485.8 429.44C490.15 427.22 493.74 425.05 495.89 422.91C497.74 421.07 500.9 417 502.94 411.83C503.94 409.3 505.05 405.9 505.65 400.92C506.09 397.29 505.09 392.97 504.15 389.75C503.01 385.86 503.66 385.01 506.18 388.97C508.42 392.49 510.5 396.01 512.2 398.91C516.04 405.42 519.36 412.98 522.52 419.68Z" fill="#88B6FF" stroke="#88B6FF" stroke-width="5" stroke-miterlimit="10"/>
<path d="M307.37 420.01C307.29 420.19 307.29 420.39 307.34 420.58C309.16 426.57 311.15 431.5 312.81 435.22C316.53 443.54 318.93 448.91 324.29 454.29C329.75 459.77 335.72 462.6 336.92 463.16C341.06 465.11 343.92 466.26 350.25 465.98C353.76 465.83 360.89 465.1 366.12 460.16C368.33 458.07 369.75 453.89 370.16 452.53C370.73 450.65 371.09 447.27 370.31 443.28C370.05 441.97 369.85 439.27 367.81 436.79C366.23 434.87 364.06 433.04 360.45 431.96C351.79 429.38 349.93 430.68 344.48 428.19C340.04 426.16 336.36 424.14 334.12 422.1C332.2 420.35 328.86 416.41 326.6 411.34C325.49 408.85 324.24 405.5 323.42 400.56C322.82 396.96 323.64 392.6 324.45 389.34C325.43 385.41 324.74 384.59 322.39 388.65C320.3 392.26 318.37 395.87 316.8 398.84C313.23 405.49 310.24 413.18 307.37 420.01Z" fill="#88B6FF" stroke="#88B6FF" stroke-width="5" stroke-miterlimit="10"/>
<path d="M501.63 539.72C501.63 546.31 488.53 547.65 474.33 547.65C460.13 547.65 444.66 547.9 444.66 541.31C444.66 534.72 456.79 523.36 472.09 522.46C486.27 521.62 501.63 533.13 501.63 539.72Z" fill="#88B6FF" stroke="#88B6FF" stroke-width="5" stroke-miterlimit="10"/>
<path d="M382.01 543.93C381.63 550.51 366.8 549.93 352.62 549.12C338.44 548.31 324.67 548.84 325.05 542.26C325.43 535.68 338.19 525.03 353.51 525.01C367.71 524.98 382.38 537.35 382.01 543.93Z" fill="#88B6FF" stroke="#88B6FF" stroke-width="5" stroke-miterlimit="10"/>
<path d="M427.19 471.96C432.33 472.14 434.65 471.91 442.68 471.56C445.86 471.42 449.99 469.68 452.87 466.02C455.9 462.17 455.58 457.72 454.95 448.81C454.42 441.34 454.3 437.35 451.41 434.45C448.82 431.86 447.2 431.32 442.62 430.96C438.61 430.65 432.7 430.78 425.87 431.3L427.19 471.96Z" fill="#394981" stroke="#394981" stroke-width="10" stroke-miterlimit="10"/>
<path d="M409.51 444.39L425.86 443.74" stroke="#394981" stroke-width="6" stroke-miterlimit="10"/>
<path d="M410.05 463.83L425.87 463.46" stroke="#394981" stroke-width="6" stroke-miterlimit="10"/>
<path d="M444.46 304.35C453.197 304.35 460.28 297.03 460.28 288C460.28 278.97 453.197 271.65 444.46 271.65C435.723 271.65 428.64 278.97 428.64 288C428.64 297.03 435.723 304.35 444.46 304.35Z" fill="#E6E6E6" stroke="#E6E6E6" stroke-width="10" stroke-miterlimit="10"/>
<path d="M440.57 301.02C445.778 301.02 450 296.964 450 291.96C450 286.956 445.778 282.9 440.57 282.9C435.362 282.9 431.14 286.956 431.14 291.96C431.14 296.964 435.362 301.02 440.57 301.02Z" fill="black" stroke="black" stroke-width="7" stroke-miterlimit="10"/>
<path d="M375.76 304.35C384.497 304.35 391.58 297.03 391.58 288C391.58 278.97 384.497 271.65 375.76 271.65C367.023 271.65 359.94 278.97 359.94 288C359.94 297.03 367.023 304.35 375.76 304.35Z" fill="#E6E6E6" stroke="#E6E6E6" stroke-width="10" stroke-miterlimit="10"/>
<path d="M379.65 301.02C384.858 301.02 389.08 296.964 389.08 291.96C389.08 286.956 384.858 282.9 379.65 282.9C374.442 282.9 370.22 286.956 370.22 291.96C370.22 296.964 374.442 301.02 379.65 301.02Z" fill="black" stroke="black" stroke-width="7" stroke-miterlimit="10"/>
<path d="M413.36 309.66L419.36 320.04C420.42 321.88 419.09 324.19 416.96 324.19H404.97C402.84 324.19 401.51 321.88 402.57 320.04L408.57 309.66C409.64 307.82 412.3 307.82 413.36 309.66Z" fill="#1A1A1A" stroke="#1A1A1A" stroke-width="3" stroke-miterlimit="10"/>
<path d="M411.89 320.57C411.49 338.64 411.42 344.71 431 344.05" stroke="#1A1A1A" stroke-width="3" stroke-miterlimit="10"/>
<path d="M411.4 320.57C411.81 338.21 410.33 344.09 392.87 343.98" stroke="#1A1A1A" stroke-width="3" stroke-miterlimit="10"/>
<path d="M582.77 439.844L587.633 430.938H590.973L582.875 444.941C582.219 446.152 581.512 447.016 580.754 447.531C579.996 448.039 579.121 448.285 578.129 448.27C577.762 448.27 577.324 448.242 576.816 448.188L577.086 445.844C577.492 445.898 577.816 445.922 578.059 445.914C578.918 445.914 579.609 445.492 580.133 444.648L580.93 443.195L577.449 430.938H580.473L582.77 439.844ZM603.77 444.473L608.984 435.32H612.523L610.32 448H607.543L608.973 439.82L604.238 448H602.34L600.395 439.445L598.895 448H596.117L598.32 435.32H601.754L603.77 444.473ZM619.273 448.234C618.172 448.211 617.215 447.934 616.402 447.402C615.598 446.871 615 446.145 614.609 445.223C614.227 444.301 614.082 443.273 614.176 442.141L614.211 441.66C614.352 440.371 614.727 439.215 615.336 438.191C615.953 437.16 616.719 436.379 617.633 435.848C618.547 435.316 619.539 435.062 620.609 435.086C622.195 435.117 623.383 435.707 624.172 436.855C624.969 438.004 625.27 439.5 625.074 441.344L624.91 442.562H616.93C616.859 443.57 617.062 444.383 617.539 445C618.016 445.617 618.672 445.934 619.508 445.949C620.703 445.988 621.805 445.469 622.812 444.391L624.219 445.867C623.688 446.625 622.988 447.215 622.121 447.637C621.254 448.051 620.305 448.25 619.273 448.234ZM620.457 437.359C618.988 437.312 617.887 438.352 617.152 440.477L622.414 440.488L622.461 440.242C622.516 439.883 622.52 439.531 622.473 439.188C622.387 438.633 622.168 438.195 621.816 437.875C621.465 437.555 621.012 437.383 620.457 437.359ZM636.582 448H633.793L634.684 442.879H629.926L629.035 448H626.246L628.449 435.32H631.238L630.312 440.605H635.082L635.996 435.32H638.785L636.582 448ZM651.688 435.32L649.484 448H646.719L647.527 443.348H645.055L641.609 448H638.562L642.477 442.82C641.852 442.469 641.387 442 641.082 441.414C640.785 440.828 640.656 440.18 640.695 439.469C640.773 438.211 641.328 437.203 642.359 436.445C643.391 435.688 644.676 435.309 646.215 435.309L651.688 435.32ZM643.461 439.539C643.375 440.039 643.484 440.441 643.789 440.746C644.094 441.051 644.512 441.211 645.043 441.227L647.891 441.238L648.523 437.582L646.145 437.57C645.426 437.586 644.816 437.781 644.316 438.156C643.824 438.523 643.539 438.984 643.461 439.539ZM671.246 435.32L669.055 448H666.266L668.07 437.617H664.625L663.465 442.914C663.051 444.711 662.445 446.012 661.648 446.816C660.852 447.613 659.832 448.008 658.59 448H657.629L657.887 445.645L658.309 445.609C659.02 445.547 659.598 445.223 660.043 444.637C660.496 444.043 660.844 443.062 661.086 441.695L661.262 440.734L662.387 435.32H671.246ZM679.637 448C679.543 447.688 679.504 447.293 679.52 446.816C678.473 447.793 677.344 448.266 676.133 448.234C675.031 448.219 674.117 447.867 673.391 447.18C672.672 446.484 672.336 445.605 672.383 444.543C672.445 443.207 673.023 442.156 674.117 441.391C675.211 440.625 676.68 440.242 678.523 440.242L680.328 440.266L680.492 439.398C680.539 439.094 680.539 438.809 680.492 438.543C680.336 437.699 679.777 437.266 678.816 437.242C678.223 437.227 677.699 437.379 677.246 437.699C676.801 438.012 676.527 438.434 676.426 438.965L673.648 438.988C673.703 438.207 673.98 437.523 674.48 436.938C674.98 436.344 675.645 435.883 676.473 435.555C677.301 435.227 678.176 435.07 679.098 435.086C680.48 435.117 681.559 435.535 682.332 436.34C683.105 437.137 683.426 438.172 683.293 439.445L682.32 445.387L682.227 446.441C682.203 446.902 682.262 447.352 682.402 447.789L682.391 448H679.637ZM676.777 445.961C677.363 445.977 677.906 445.844 678.406 445.562C678.906 445.273 679.332 444.902 679.684 444.449L680.117 442.047L678.793 442.035C677.746 442.035 676.91 442.234 676.285 442.633C675.66 443.023 675.305 443.562 675.219 444.25C675.156 444.773 675.27 445.188 675.559 445.492C675.855 445.789 676.262 445.945 676.777 445.961ZM695.281 448H692.492L694.297 437.617H689.527L687.723 448H684.934L687.137 435.32H697.484L695.281 448ZM703.672 442.984H702.195L701.316 448H698.539L700.742 435.32H703.52L702.641 440.383H703.742L708.02 435.32H711.652L706.016 441.531L709.625 448H706.215L703.672 442.984ZM721.133 435.32H723.992L721.789 448H719.012L720.465 439.727L714.301 448H711.441L713.645 435.32H716.422L714.969 443.594L721.133 435.32ZM731.082 446.629C731.082 446.152 731.23 445.766 731.527 445.469C731.832 445.164 732.219 445.004 732.688 444.988C733.148 444.973 733.531 445.113 733.836 445.41C734.148 445.699 734.305 446.074 734.305 446.535C734.305 446.988 734.156 447.367 733.859 447.672C733.562 447.969 733.176 448.125 732.699 448.141C732.238 448.156 731.852 448.02 731.539 447.73C731.234 447.441 731.082 447.074 731.082 446.629ZM732.793 436.68C732.793 436.203 732.941 435.816 733.238 435.52C733.543 435.215 733.93 435.055 734.398 435.039C734.859 435.023 735.242 435.164 735.547 435.461C735.859 435.75 736.016 436.125 736.016 436.586C736.016 437.039 735.867 437.418 735.57 437.723C735.273 438.02 734.887 438.176 734.41 438.191C733.949 438.207 733.562 438.07 733.25 437.781C732.945 437.492 732.793 437.125 732.793 436.68ZM738.383 441.109C738.797 438.258 739.656 435.723 740.961 433.504C742.273 431.277 743.898 429.734 745.836 428.875L746.258 430.562C743.586 432.625 741.852 435.859 741.055 440.266C740.766 441.875 740.617 443.426 740.609 444.918C740.594 446.504 740.781 447.887 741.172 449.066C741.562 450.254 742.141 451.188 742.906 451.867L742.25 453.426C740.914 452.598 739.887 451.309 739.168 449.559C738.457 447.809 738.133 445.77 738.195 443.441C738.211 442.691 738.266 441.98 738.359 441.309L738.383 441.109Z" fill="white"/>
</svg>
