<svg width="1331" height="802" viewBox="0 0 1331 802" fill="none" xmlns="http://www.w3.org/2000/svg">
<path d="M837.055 440.192H17.4426C7.84916 440.192 0 432.348 0 422.761V17.4316C0 7.84423 7.84916 0 17.4426 0H837.055C846.648 0 854.498 7.84423 854.498 17.4316V422.761C854.498 432.348 846.648 440.192 837.055 440.192Z" fill="#8399E5"/>
<path d="M814.147 424.111H38.4318C26.7308 424.111 17.2536 414.64 17.2536 402.947V52.7742C17.2536 41.0805 26.7308 31.6093 38.4318 31.6093H814.147C825.848 31.6093 835.325 41.0805 835.325 52.7742V402.932C835.325 414.626 825.848 424.111 814.147 424.111Z" fill="#FBFDFF"/>
<path d="M28.5041 26.9319C33.7623 26.9319 38.0248 22.672 38.0248 17.4171C38.0248 12.1622 33.7623 7.90234 28.5041 7.90234C23.2459 7.90234 18.9833 12.1622 18.9833 17.4171C18.9833 22.672 23.2459 26.9319 28.5041 26.9319Z" fill="#666666"/>
<path d="M53.5487 26.9319C58.8069 26.9319 63.0695 22.672 63.0695 17.4171C63.0695 12.1622 58.8069 7.90234 53.5487 7.90234C48.2906 7.90234 44.028 12.1622 44.028 17.4171C44.028 22.672 48.2906 26.9319 53.5487 26.9319Z" fill="#666666"/>
<path d="M78.7097 26.9319C83.9678 26.9319 88.2304 22.672 88.2304 17.4171C88.2304 12.1622 83.9678 7.90234 78.7097 7.90234C73.4515 7.90234 69.1889 12.1622 69.1889 17.4171C69.1889 22.672 73.4515 26.9319 78.7097 26.9319Z" fill="#666666"/>
<path d="M854.498 248.255H885.357C888.627 248.255 891.302 245.583 891.302 242.314V144.247C891.302 140.978 888.627 138.305 885.357 138.305H854.498V248.255Z" fill="#333333"/>
<path d="M423.797 719.97C415.555 714.551 406.63 706.969 399.072 696.408C393.926 689.217 391.092 682.986 386.993 673.994C381.876 662.765 379.042 654.267 374.914 641.818C361.599 601.522 362.951 604.442 361.12 599.866C352.602 578.715 349.535 571.743 338.313 557.42C335.799 554.209 324.461 543.765 307.062 540.075C292.599 536.996 284.619 536.734 253.746 550.302C232.437 559.657 221.288 566.557 210.968 568.852C187.493 574.096 159.658 567.007 150.66 549.881C149.832 548.297 145.704 540.38 148.931 533.785C152.855 525.796 159.135 524.242 166.184 525.171C180.473 527.045 187.464 542.617 204.136 544.128C219.849 545.552 223.41 535.717 252.249 523.631C267.206 517.356 291.756 506.984 316.074 509.541C324.127 510.383 346.119 515.192 366.672 535.703C382.269 551.246 387.69 570.087 393.897 591.644C399.537 611.225 399.435 622.629 409.232 641.455C414.596 651.754 420.424 659.482 424.567 664.435L423.797 719.97Z" fill="#88B6FF" stroke="#88B6FF" stroke-width="5" stroke-miterlimit="10"/>
<path d="M779.378 701.783C779.378 790.176 695.508 782.898 614.895 783.261C519.556 783.697 428.942 790.176 428.942 701.783C428.942 613.39 519.498 459.367 600.112 459.367C680.726 459.367 779.378 613.404 779.378 701.783Z" fill="#4687FF" stroke="#4687FF" stroke-width="10" stroke-miterlimit="10"/>
<path d="M604.167 536.734C673.399 536.734 729.522 482.533 729.522 415.672C729.522 348.811 673.399 294.609 604.167 294.609C534.936 294.609 478.813 348.811 478.813 415.672C478.813 482.533 534.936 536.734 604.167 536.734Z" fill="#4687FF" stroke="#4687FF" stroke-width="10" stroke-miterlimit="10"/>
<path d="M651.335 315.876C652.396 313.653 653.021 313.842 678.56 299.592C698.081 288.697 705.989 282.625 719.39 280.649C727.487 279.458 731.92 279.995 735.874 281.782C752.807 289.452 752.996 326.93 745.656 352.656C741.397 367.546 735.772 387.244 721.498 391.732C691.715 401.116 640.23 339.336 651.335 315.876Z" fill="#4669FF" stroke="#4669FF" stroke-width="10" stroke-miterlimit="10"/>
<path d="M553.773 315.876C552.712 313.653 552.087 313.842 526.548 299.592C507.027 288.697 499.12 282.625 485.718 280.649C477.622 279.458 473.188 279.995 469.235 281.782C452.301 289.452 452.112 326.93 459.452 352.656C463.711 367.546 469.336 387.244 483.61 391.732C513.379 401.116 564.864 339.336 553.773 315.876Z" fill="#4687FF" stroke="#4687FF" stroke-width="10" stroke-miterlimit="10"/>
<path d="M891.302 195.772C908.046 195.772 915.082 198.619 941.9 201.132C966.348 203.427 989.358 209.034 1018.95 206.884C1062.21 203.747 1066.24 191.821 1094.86 194.246C1123.03 196.629 1143.3 206.87 1159.26 214.932C1200.15 235.603 1224.27 263.508 1238.61 280.446C1252.19 296.468 1271.51 319.159 1284.62 354.007C1296.84 386.474 1289.75 392.429 1304.17 441.354C1316.6 483.495 1323.49 484.657 1323.72 505.721C1324.15 546.075 1299.23 576.014 1292.67 583.872C1288.18 589.262 1268.05 612.576 1234.02 625.243C1209.15 634.511 1203.22 628.279 1168.46 639.029C1146.57 645.813 1129.92 654.165 1116.72 660.862C1078.81 680.08 1079.3 687.155 1059.22 691.89C1054.33 693.038 1035.96 692.297 999.417 690.743C963.528 689.217 954.923 688.578 940.766 691.89C921.942 696.306 924.079 700.519 903.962 705.676C875.342 713.026 851.256 709.583 840.704 707.971C832.331 706.693 823.668 704.732 802.751 697.628C783.753 691.179 757.561 681.475 726.469 667.355" stroke="#333333" stroke-width="10" stroke-miterlimit="10"/>
<path d="M759.508 609.642C759.625 609.904 759.654 610.194 759.581 610.456C757.299 619.259 754.726 626.551 752.546 632.042C747.662 644.346 744.522 652.291 737.065 660.441C729.478 668.735 720.975 673.209 719.274 674.095C713.387 677.175 709.288 679.979 700.102 679.979C694.985 679.979 686.831 679.979 678.531 673.514C675.043 670.798 671.016 662.678 670.333 660.731C669.388 658.044 668.662 653.163 669.548 647.323C669.839 645.406 669.97 641.469 672.775 637.751C674.955 634.874 677.979 632.071 683.168 630.284C695.581 625.999 698.372 627.771 706.134 623.82C712.457 620.595 717.675 617.443 720.8 614.334C723.489 611.661 728.083 605.749 731.048 598.239C732.501 594.564 734.115 589.625 734.987 582.391C735.626 577.118 734.173 570.842 732.807 566.165C731.15 560.514 732.094 559.279 735.757 565.032C739.013 570.145 742.037 575.258 744.508 579.471C750.089 588.942 754.915 599.924 759.508 609.642Z" fill="#88B6FF" stroke="#88B6FF" stroke-width="5" stroke-miterlimit="10"/>
<path d="M446.777 610.121C446.661 610.383 446.661 610.673 446.734 610.949C449.379 619.651 452.272 626.812 454.685 632.216C460.092 644.302 463.58 652.103 471.371 659.918C479.308 667.878 488 671.989 489.73 672.803C495.747 675.635 499.904 677.306 509.105 676.899C514.207 676.681 524.571 675.621 532.173 668.445C535.386 665.409 537.45 659.337 538.046 657.361C538.874 654.63 539.397 649.72 538.264 643.924C537.886 642.021 537.595 638.099 534.63 634.497C532.333 631.708 529.179 629.049 523.932 627.48C511.344 623.733 508.64 625.621 500.718 622.004C494.265 619.055 488.916 616.121 485.66 613.157C482.869 610.615 478.014 604.892 474.729 597.527C473.116 593.91 471.299 589.044 470.107 581.868C469.235 576.638 470.427 570.305 471.604 565.569C473.028 559.86 472.025 558.669 468.61 564.567C465.572 569.811 462.766 575.055 460.484 579.369C455.295 589.029 450.949 600.2 446.777 610.121Z" fill="#88B6FF" stroke="#88B6FF" stroke-width="5" stroke-miterlimit="10"/>
<path d="M729.144 784.016C729.144 793.589 710.102 795.536 689.462 795.536C668.821 795.536 646.335 795.899 646.335 786.326C646.335 776.753 663.966 760.251 686.206 758.944C706.803 757.724 729.144 774.443 729.144 784.016Z" fill="#88B6FF" stroke="#88B6FF" stroke-width="5" stroke-miterlimit="10"/>
<path d="M555.27 790.132C554.718 799.69 533.162 798.848 512.55 797.671C491.939 796.495 471.924 797.264 472.476 787.706C473.028 778.148 491.576 762.677 513.844 762.648C534.484 762.605 555.808 780.574 555.27 790.132Z" fill="#88B6FF" stroke="#88B6FF" stroke-width="5" stroke-miterlimit="10"/>
<path d="M620.941 685.586C628.413 685.847 631.785 685.513 643.457 685.005C648.079 684.801 654.082 682.274 658.269 676.957C662.673 671.365 662.208 664.9 661.292 651.957C660.522 641.106 660.347 635.31 656.146 631.097C652.382 627.335 650.027 626.551 643.37 626.028C637.541 625.577 628.95 625.766 619.023 626.522L620.941 685.586Z" fill="#333333" stroke="#333333" stroke-width="10" stroke-miterlimit="10"/>
<path d="M595.243 645.537L619.008 644.592" stroke="#333333" stroke-width="6" stroke-miterlimit="10"/>
<path d="M596.028 673.776L619.023 673.238" stroke="#333333" stroke-width="6" stroke-miterlimit="10"/>
<path d="M646.044 442.11C658.744 442.11 669.039 431.476 669.039 418.359C669.039 405.242 658.744 394.608 646.044 394.608C633.344 394.608 623.049 405.242 623.049 418.359C623.049 431.476 633.344 442.11 646.044 442.11Z" fill="#E6E6E6" stroke="#E6E6E6" stroke-width="10" stroke-miterlimit="10"/>
<path d="M640.39 437.272C647.96 437.272 654.097 431.38 654.097 424.111C654.097 416.843 647.96 410.951 640.39 410.951C632.82 410.951 626.683 416.843 626.683 424.111C626.683 431.38 632.82 437.272 640.39 437.272Z" fill="black" stroke="black" stroke-width="7" stroke-miterlimit="10"/>
<path d="M546.185 442.11C558.885 442.11 569.181 431.476 569.181 418.359C569.181 405.242 558.885 394.608 546.185 394.608C533.486 394.608 523.19 405.242 523.19 418.359C523.19 431.476 533.486 442.11 546.185 442.11Z" fill="#E6E6E6" stroke="#E6E6E6" stroke-width="10" stroke-miterlimit="10"/>
<path d="M551.84 437.272C559.41 437.272 565.547 431.38 565.547 424.111C565.547 416.843 559.41 410.951 551.84 410.951C544.27 410.951 538.133 416.843 538.133 424.111C538.133 431.38 544.27 437.272 551.84 437.272Z" fill="black" stroke="black" stroke-width="7" stroke-miterlimit="10"/>
<path d="M600.839 449.823L609.56 464.901C611.101 467.574 609.168 470.93 606.072 470.93H588.644C585.548 470.93 583.614 467.574 585.155 464.901L593.876 449.823C595.432 447.15 599.298 447.15 600.839 449.823Z" fill="#1A1A1A" stroke="#1A1A1A" stroke-width="3" stroke-miterlimit="10"/>
<path d="M598.702 465.671C598.121 491.92 598.019 500.738 626.479 499.779" stroke="#1A1A1A" stroke-width="3" stroke-miterlimit="10"/>
<path d="M597.99 465.671C598.586 491.296 596.435 499.837 571.056 499.678" stroke="#1A1A1A" stroke-width="3" stroke-miterlimit="10"/>
<path d="M62.7188 122.625C59.7604 122.562 57.1562 121.854 54.9062 120.5C52.6771 119.146 50.9375 117.188 49.6875 114.625C48.4375 112.042 47.7292 109.115 47.5625 105.844C47.4167 103.24 47.6458 100.198 48.25 96.7188C48.875 93.2396 49.9688 90.0729 51.5312 87.2188C53.1146 84.3438 55 82 57.1875 80.1875C60.7917 77.2292 64.9583 75.7917 69.6875 75.875C74.1875 75.9583 77.7708 77.5104 80.4375 80.5312C83.125 83.5521 84.5938 87.6354 84.8438 92.7812C84.9688 95.3646 84.7292 98.3333 84.125 101.688C83.5417 105.021 82.5208 108.094 81.0625 110.906C79.625 113.698 77.8333 116.031 75.6875 117.906C71.9792 121.156 67.6562 122.729 62.7188 122.625ZM76.9375 98.0312L77.2188 94.7188C77.3438 92.4479 77.1458 90.3542 76.625 88.4375C76.1042 86.5 75.2188 85.0312 73.9688 84.0312C72.7396 83.0104 71.1771 82.4688 69.2812 82.4062C66.6562 82.3229 64.3229 83.0625 62.2812 84.625C60.2604 86.1875 58.6146 88.5625 57.3438 91.75C56.0938 94.9375 55.3646 98.9375 55.1562 103.75C54.9479 107.562 55.5312 110.562 56.9062 112.75C58.2812 114.938 60.3438 116.073 63.0938 116.156C66.6979 116.26 69.6667 114.906 72 112.094C74.3542 109.281 75.8958 105.323 76.625 100.219L76.9375 98.0312ZM101.281 88.1875L96.4375 115.938H106.625L111.469 88.1875H118.875L114.062 115.938H124.281L129.094 88.1875H136.5L130.625 122H87.9688L93.8438 88.1875H101.281ZM165 88.1875H172.625L166.75 122H159.344L163.219 99.9375L146.781 122H139.156L145.031 88.1875H152.438L148.562 110.25L165 88.1875ZM195.312 90.0625C199.188 90.1458 202.198 91.625 204.344 94.5C206.51 97.375 207.406 101.052 207.031 105.531C206.573 110.677 204.76 114.844 201.594 118.031C198.448 121.219 194.542 122.771 189.875 122.688C186.979 122.604 184.49 121.823 182.406 120.344C180.344 118.865 178.833 116.833 177.875 114.25C176.938 111.646 176.635 108.781 176.969 105.656L177.031 105V104.906L177.344 102.562C178.365 95.5625 180.385 89.9896 183.406 85.8438C186.448 81.6979 190.375 79.1042 195.188 78.0625L198.125 77.5C201.188 76.8958 202.938 75.5312 203.375 73.4062H209.406C209.24 75.4896 208.729 77.1979 207.875 78.5312C207.021 79.8646 205.792 80.9688 204.188 81.8438C202.583 82.6979 200.229 83.4271 197.125 84.0312C194.042 84.6146 191.5 85.7604 189.5 87.4688C187.521 89.1771 185.854 91.6042 184.5 94.75C187.792 91.5833 191.396 90.0208 195.312 90.0625ZM193.438 96.125C191.792 96.0833 190.312 96.4688 189 97.2812C187.708 98.0729 186.656 99.1979 185.844 100.656C185.052 102.115 184.542 103.792 184.312 105.688C184.167 107.229 184.135 108.604 184.219 109.812C184.365 111.896 184.948 113.542 185.969 114.75C186.99 115.938 188.417 116.562 190.25 116.625C192.688 116.688 194.74 115.802 196.406 113.969C198.073 112.135 199.125 109.552 199.562 106.219L199.625 105.562C199.896 102.667 199.49 100.385 198.406 98.7188C197.344 97.0521 195.688 96.1875 193.438 96.125ZM223.75 108.625H219.812L217.469 122H210.062L215.938 88.1875H223.344L221 101.688H223.938L235.344 88.1875H245.031L230 104.75L239.625 122H230.531L223.75 108.625ZM264.281 122C264.031 121.167 263.927 120.115 263.969 118.844C261.177 121.448 258.167 122.708 254.938 122.625C252 122.583 249.562 121.646 247.625 119.812C245.708 117.958 244.812 115.615 244.938 112.781C245.104 109.219 246.646 106.417 249.562 104.375C252.479 102.333 256.396 101.312 261.312 101.312L266.125 101.375L266.562 99.0625C266.688 98.25 266.688 97.4896 266.562 96.7812C266.146 94.5312 264.656 93.375 262.094 93.3125C260.51 93.2708 259.115 93.6771 257.906 94.5312C256.719 95.3646 255.99 96.4896 255.719 97.9062L248.312 97.9688C248.458 95.8854 249.198 94.0625 250.531 92.5C251.865 90.9167 253.635 89.6875 255.844 88.8125C258.052 87.9375 260.385 87.5208 262.844 87.5625C266.531 87.6458 269.406 88.7604 271.469 90.9062C273.531 93.0312 274.385 95.7917 274.031 99.1875L271.438 115.031L271.188 117.844C271.125 119.073 271.281 120.271 271.656 121.438L271.625 122H264.281ZM256.656 116.562C258.219 116.604 259.667 116.25 261 115.5C262.333 114.729 263.469 113.74 264.406 112.531L265.562 106.125L262.031 106.094C259.24 106.094 257.01 106.625 255.344 107.688C253.677 108.729 252.729 110.167 252.5 112C252.333 113.396 252.635 114.5 253.406 115.312C254.198 116.104 255.281 116.521 256.656 116.562ZM321.25 105.781H326.75L325.688 111.875H320.219L318.438 122H311.031L312.781 111.875H293.719L294.375 106.875L318.438 76.5H326.344L321.25 105.781ZM302.562 105.781H313.844L317.375 86.6875L316.625 87.75L302.562 105.781ZM344.031 122.625C340.094 122.542 337.115 121.188 335.094 118.562C333.073 115.917 332.094 112.219 332.156 107.469C332.177 105.927 332.281 104.385 332.469 102.844L333.688 94.7188C334.708 88.3438 336.677 83.5833 339.594 80.4375C342.51 77.2917 346.281 75.7708 350.906 75.875C354.823 75.9583 357.792 77.2917 359.812 79.875C361.854 82.4583 362.844 86.125 362.781 90.875C362.76 92.4375 362.656 93.9792 362.469 95.5L361.25 103.406C360.188 109.927 358.208 114.792 355.312 118C352.438 121.188 348.677 122.729 344.031 122.625ZM355.25 94.2812C355.521 91.9062 355.656 90.2188 355.656 89.2188C355.552 84.5104 353.833 82.0833 350.5 81.9375C347.958 81.8333 345.917 82.7604 344.375 84.7188C342.833 86.6771 341.75 89.7917 341.125 94.0625L339.688 103.969C339.438 106.115 339.323 107.812 339.344 109.062C339.344 113.938 341.052 116.448 344.469 116.594C349.177 116.865 352.208 113.188 353.562 105.562L355.25 94.2812ZM392.5 105.781H398L396.938 111.875H391.469L389.688 122H382.281L384.031 111.875H364.969L365.625 106.875L389.688 76.5H397.594L392.5 105.781ZM373.812 105.781H385.094L388.625 86.6875L387.875 87.75L373.812 105.781Z" fill="black"/>
<path d="M71.9844 181.867C71.4062 185.43 69.8047 188.273 67.1797 190.398C64.5547 192.508 61.3594 193.531 57.5938 193.469C55.4219 193.422 53.5156 192.906 51.875 191.922C50.25 190.938 48.9766 189.508 48.0547 187.633C47.1328 185.742 46.6172 183.609 46.5078 181.234C46.4141 179.453 46.6328 177.031 47.1641 173.969C47.6953 170.891 48.7109 168.133 50.2109 165.695C51.7266 163.258 53.5781 161.422 55.7656 160.188C57.9688 158.953 60.4141 158.359 63.1016 158.406C66.4922 158.469 69.1719 159.539 71.1406 161.617C73.125 163.68 74.1797 166.531 74.3047 170.172H68.5625C68.4844 167.734 67.9688 165.977 67.0156 164.898C66.0781 163.805 64.6797 163.234 62.8203 163.188C60.2734 163.109 58.1406 164.023 56.4219 165.93C54.7031 167.836 53.5469 170.609 52.9531 174.25L52.4844 177.367L52.2734 179.758C52.1484 181.367 52.2578 182.883 52.6016 184.305C52.9609 185.711 53.5859 186.789 54.4766 187.539C55.3672 188.273 56.5 188.664 57.875 188.711C62.2344 188.883 65.0312 186.617 66.2656 181.914L71.9844 181.867ZM98.0469 172.164H90.0781L86.4453 193H80.8906L84.5 172.164H76.6016L77.3984 167.641H98.8438L98.0469 172.164ZM122.07 180.414C121.758 182.945 121.078 185.242 120.031 187.305C119 189.367 117.68 190.93 116.07 191.992C114.477 193.039 112.688 193.539 110.703 193.492C108.062 193.43 105.984 192.492 104.469 190.68L102.195 202.75H96.6172L102.711 167.641L107.797 167.617L107.375 170.242C109.312 168.133 111.617 167.109 114.289 167.172C115.898 167.188 117.297 167.602 118.484 168.414C119.672 169.211 120.578 170.375 121.203 171.906C121.844 173.438 122.188 175.141 122.234 177.016C122.25 177.969 122.195 179.102 122.07 180.414ZM116.586 179.922L116.703 178.211C116.75 176.195 116.414 174.633 115.695 173.523C114.992 172.414 113.93 171.844 112.508 171.812C110.414 171.75 108.602 172.711 107.07 174.695L105.102 186.016C105.805 187.906 107.234 188.883 109.391 188.945C111.234 188.992 112.781 188.273 114.031 186.789C115.297 185.305 116.148 183.016 116.586 179.922ZM139.836 193C139.648 192.375 139.57 191.586 139.602 190.633C137.508 192.586 135.25 193.531 132.828 193.469C130.625 193.438 128.797 192.734 127.344 191.359C125.906 189.969 125.234 188.211 125.328 186.086C125.453 183.414 126.609 181.312 128.797 179.781C130.984 178.25 133.922 177.484 137.609 177.484L141.219 177.531L141.547 175.797C141.641 175.188 141.641 174.617 141.547 174.086C141.234 172.398 140.117 171.531 138.195 171.484C137.008 171.453 135.961 171.758 135.055 172.398C134.164 173.023 133.617 173.867 133.414 174.93L127.859 174.977C127.969 173.414 128.523 172.047 129.523 170.875C130.523 169.688 131.852 168.766 133.508 168.109C135.164 167.453 136.914 167.141 138.758 167.172C141.523 167.234 143.68 168.07 145.227 169.68C146.773 171.273 147.414 173.344 147.148 175.891L145.203 187.773L145.016 189.883C144.969 190.805 145.086 191.703 145.367 192.578L145.344 193H139.836ZM134.117 188.922C135.289 188.953 136.375 188.688 137.375 188.125C138.375 187.547 139.227 186.805 139.93 185.898L140.797 181.094L138.148 181.07C136.055 181.07 134.383 181.469 133.133 182.266C131.883 183.047 131.172 184.125 131 185.5C130.875 186.547 131.102 187.375 131.68 187.984C132.273 188.578 133.086 188.891 134.117 188.922ZM171.102 193H165.523L167.305 182.758H157.789L156.008 193H150.43L154.836 167.641H160.414L158.562 178.211H168.102L169.93 167.641H175.508L171.102 193ZM196.766 167.641H202.484L198.078 193H192.523L195.43 176.453L183.102 193H177.383L181.789 167.641H187.344L184.438 184.188L196.766 167.641ZM208.789 167.641H214.367L210.734 188.453H220.297L223.906 167.641H229.484L225.852 188.453H229.227L226.672 200.523H221.586L222.898 193H204.383L208.789 167.641ZM247.555 193C247.367 192.375 247.289 191.586 247.32 190.633C245.227 192.586 242.969 193.531 240.547 193.469C238.344 193.438 236.516 192.734 235.062 191.359C233.625 189.969 232.953 188.211 233.047 186.086C233.172 183.414 234.328 181.312 236.516 179.781C238.703 178.25 241.641 177.484 245.328 177.484L248.938 177.531L249.266 175.797C249.359 175.188 249.359 174.617 249.266 174.086C248.953 172.398 247.836 171.531 245.914 171.484C244.727 171.453 243.68 171.758 242.773 172.398C241.883 173.023 241.336 173.867 241.133 174.93L235.578 174.977C235.688 173.414 236.242 172.047 237.242 170.875C238.242 169.688 239.57 168.766 241.227 168.109C242.883 167.453 244.633 167.141 246.477 167.172C249.242 167.234 251.398 168.07 252.945 169.68C254.492 171.273 255.133 173.344 254.867 175.891L252.922 187.773L252.734 189.883C252.688 190.805 252.805 191.703 253.086 192.578L253.062 193H247.555ZM241.836 188.922C243.008 188.953 244.094 188.688 245.094 188.125C246.094 187.547 246.945 186.805 247.648 185.898L248.516 181.094L245.867 181.07C243.773 181.07 242.102 181.469 240.852 182.266C239.602 183.047 238.891 184.125 238.719 185.5C238.594 186.547 238.82 187.375 239.398 187.984C239.992 188.578 240.805 188.891 241.836 188.922ZM290.68 193H285.102L286.883 182.758H277.367L275.586 193H270.008L274.414 167.641H279.992L278.141 178.211H287.68L289.508 167.641H295.086L290.68 193ZM308.234 193.469C306.031 193.422 304.117 192.867 302.492 191.805C300.883 190.742 299.688 189.289 298.906 187.445C298.141 185.602 297.852 183.547 298.039 181.281L298.109 180.32C298.391 177.742 299.141 175.43 300.359 173.383C301.594 171.32 303.125 169.758 304.953 168.695C306.781 167.633 308.766 167.125 310.906 167.172C314.078 167.234 316.453 168.414 318.031 170.711C319.625 173.008 320.227 176 319.836 179.688L319.508 182.125H303.547C303.406 184.141 303.812 185.766 304.766 187C305.719 188.234 307.031 188.867 308.703 188.898C311.094 188.977 313.297 187.938 315.312 185.781L318.125 188.734C317.062 190.25 315.664 191.43 313.93 192.273C312.195 193.102 310.297 193.5 308.234 193.469ZM310.602 171.719C307.664 171.625 305.461 173.703 303.992 177.953L314.516 177.977L314.609 177.484C314.719 176.766 314.727 176.062 314.633 175.375C314.461 174.266 314.023 173.391 313.32 172.75C312.617 172.109 311.711 171.766 310.602 171.719ZM354.711 193H349.133L350.914 182.758H341.398L339.617 193H334.039L338.445 167.641H344.023L342.172 178.211H351.711L353.539 167.641H359.117L354.711 193ZM375.852 193C375.664 192.375 375.586 191.586 375.617 190.633C373.523 192.586 371.266 193.531 368.844 193.469C366.641 193.438 364.812 192.734 363.359 191.359C361.922 189.969 361.25 188.211 361.344 186.086C361.469 183.414 362.625 181.312 364.812 179.781C367 178.25 369.938 177.484 373.625 177.484L377.234 177.531L377.562 175.797C377.656 175.188 377.656 174.617 377.562 174.086C377.25 172.398 376.133 171.531 374.211 171.484C373.023 171.453 371.977 171.758 371.07 172.398C370.18 173.023 369.633 173.867 369.43 174.93L363.875 174.977C363.984 173.414 364.539 172.047 365.539 170.875C366.539 169.688 367.867 168.766 369.523 168.109C371.18 167.453 372.93 167.141 374.773 167.172C377.539 167.234 379.695 168.07 381.242 169.68C382.789 171.273 383.43 173.344 383.164 175.891L381.219 187.773L381.031 189.883C380.984 190.805 381.102 191.703 381.383 192.578L381.359 193H375.852ZM370.133 188.922C371.305 188.953 372.391 188.688 373.391 188.125C374.391 187.547 375.242 186.805 375.945 185.898L376.812 181.094L374.164 181.07C372.07 181.07 370.398 181.469 369.148 182.266C367.898 183.047 367.188 184.125 367.016 185.5C366.891 186.547 367.117 187.375 367.695 187.984C368.289 188.578 369.102 188.891 370.133 188.922ZM405.828 167.641H411.547L407.141 193H401.586L404.492 176.453L392.164 193H386.445L390.852 167.641H396.406L393.5 184.188L405.828 167.641ZM410.047 157.891C409.891 159.969 409.086 161.609 407.633 162.812C406.18 164.016 404.398 164.586 402.289 164.523C400.227 164.492 398.57 163.883 397.32 162.695C396.086 161.492 395.469 159.891 395.469 157.891L399.594 157.914C399.516 160.102 400.414 161.195 402.289 161.195C403.336 161.195 404.156 160.891 404.75 160.281C405.344 159.672 405.734 158.891 405.922 157.938L410.047 157.891ZM414.008 188.523C415.664 187.008 416.992 185.32 417.992 183.461C419.008 181.586 419.758 179.32 420.242 176.664L422.07 167.641H439.203L435.594 188.453H438.992L436.883 200.547H431.352L432.664 193H416.938L415.625 200.547H409.977L412.109 188.477L414.008 188.523ZM420.547 188.547L430.039 188.453L432.805 172.539H426.641L425.375 178.797C424.391 182.984 422.781 186.234 420.547 188.547ZM453.828 193.469C451.625 193.422 449.711 192.867 448.086 191.805C446.477 190.742 445.281 189.289 444.5 187.445C443.734 185.602 443.445 183.547 443.633 181.281L443.703 180.32C443.984 177.742 444.734 175.43 445.953 173.383C447.188 171.32 448.719 169.758 450.547 168.695C452.375 167.633 454.359 167.125 456.5 167.172C459.672 167.234 462.047 168.414 463.625 170.711C465.219 173.008 465.82 176 465.43 179.688L465.102 182.125H449.141C449 184.141 449.406 185.766 450.359 187C451.312 188.234 452.625 188.867 454.297 188.898C456.688 188.977 458.891 187.938 460.906 185.781L463.719 188.734C462.656 190.25 461.258 191.43 459.523 192.273C457.789 193.102 455.891 193.5 453.828 193.469ZM456.195 171.719C453.258 171.625 451.055 173.703 449.586 177.953L460.109 177.977L460.203 177.484C460.312 176.766 460.32 176.062 460.227 175.375C460.055 174.266 459.617 173.391 458.914 172.75C458.211 172.109 457.305 171.766 456.195 171.719ZM488.445 193H482.867L484.648 182.758H475.133L473.352 193H467.773L472.18 167.641H477.758L475.906 178.211H485.445L487.273 167.641H492.852L488.445 193ZM509.586 193C509.398 192.375 509.32 191.586 509.352 190.633C507.258 192.586 505 193.531 502.578 193.469C500.375 193.438 498.547 192.734 497.094 191.359C495.656 189.969 494.984 188.211 495.078 186.086C495.203 183.414 496.359 181.312 498.547 179.781C500.734 178.25 503.672 177.484 507.359 177.484L510.969 177.531L511.297 175.797C511.391 175.188 511.391 174.617 511.297 174.086C510.984 172.398 509.867 171.531 507.945 171.484C506.758 171.453 505.711 171.758 504.805 172.398C503.914 173.023 503.367 173.867 503.164 174.93L497.609 174.977C497.719 173.414 498.273 172.047 499.273 170.875C500.273 169.688 501.602 168.766 503.258 168.109C504.914 167.453 506.664 167.141 508.508 167.172C511.273 167.234 513.43 168.07 514.977 169.68C516.523 171.273 517.164 173.344 516.898 175.891L514.953 187.773L514.766 189.883C514.719 190.805 514.836 191.703 515.117 192.578L515.094 193H509.586ZM503.867 188.922C505.039 188.953 506.125 188.688 507.125 188.125C508.125 187.547 508.977 186.805 509.68 185.898L510.547 181.094L507.898 181.07C505.805 181.07 504.133 181.469 502.883 182.266C501.633 183.047 500.922 184.125 500.75 185.5C500.625 186.547 500.852 187.375 501.43 187.984C502.023 188.578 502.836 188.891 503.867 188.922Z" fill="black"/>
<path d="M812.654 632.766L819.949 619.406H824.959L812.812 640.412C811.828 642.229 810.768 643.523 809.631 644.297C808.494 645.059 807.182 645.428 805.693 645.404C805.143 645.404 804.486 645.363 803.725 645.281L804.129 641.766C804.738 641.848 805.225 641.883 805.588 641.871C806.877 641.871 807.914 641.238 808.699 639.973L809.895 637.793L804.674 619.406H809.209L812.654 632.766ZM844.154 639.709L851.977 625.98H857.285L853.98 645H849.814L851.959 632.73L844.857 645H842.01L839.092 632.168L836.842 645H832.676L835.98 625.98H841.131L844.154 639.709ZM867.41 645.352C865.758 645.316 864.322 644.9 863.104 644.104C861.896 643.307 861 642.217 860.414 640.834C859.84 639.451 859.623 637.91 859.764 636.211L859.816 635.49C860.027 633.557 860.59 631.822 861.504 630.287C862.43 628.74 863.578 627.568 864.949 626.771C866.32 625.975 867.809 625.594 869.414 625.629C871.793 625.676 873.574 626.561 874.758 628.283C875.953 630.006 876.404 632.25 876.111 635.016L875.865 636.844H863.895C863.789 638.355 864.094 639.574 864.809 640.5C865.523 641.426 866.508 641.9 867.762 641.924C869.555 641.982 871.207 641.203 872.719 639.586L874.828 641.801C874.031 642.938 872.982 643.822 871.682 644.455C870.381 645.076 868.957 645.375 867.41 645.352ZM869.186 629.039C866.982 628.969 865.33 630.527 864.229 633.715L872.121 633.732L872.191 633.363C872.273 632.824 872.279 632.297 872.209 631.781C872.08 630.949 871.752 630.293 871.225 629.812C870.697 629.332 870.018 629.074 869.186 629.039ZM893.373 645H889.189L890.525 637.318H883.389L882.053 645H877.869L881.174 625.98H885.357L883.969 633.908H891.123L892.494 625.98H896.678L893.373 645ZM916.031 625.98L912.727 645H908.578L909.791 638.021H906.082L900.914 645H896.344L902.215 637.23C901.277 636.703 900.58 636 900.123 635.121C899.678 634.242 899.484 633.27 899.543 632.203C899.66 630.316 900.492 628.805 902.039 627.668C903.586 626.531 905.514 625.963 907.822 625.963L916.031 625.98ZM903.691 632.309C903.562 633.059 903.727 633.662 904.184 634.119C904.641 634.576 905.268 634.816 906.064 634.84L910.336 634.857L911.285 629.373L907.717 629.355C906.639 629.379 905.725 629.672 904.975 630.234C904.236 630.785 903.809 631.477 903.691 632.309ZM945.369 625.98L942.082 645H937.898L940.605 629.426H935.438L933.697 637.371C933.076 640.066 932.168 642.018 930.973 643.225C929.777 644.42 928.248 645.012 926.385 645H924.943L925.33 641.467L925.963 641.414C927.029 641.32 927.896 640.834 928.564 639.955C929.244 639.064 929.766 637.594 930.129 635.543L930.393 634.102L932.08 625.98H945.369ZM957.955 645C957.814 644.531 957.756 643.939 957.779 643.225C956.209 644.689 954.516 645.398 952.699 645.352C951.047 645.328 949.676 644.801 948.586 643.77C947.508 642.727 947.004 641.408 947.074 639.814C947.168 637.811 948.035 636.234 949.676 635.086C951.316 633.938 953.52 633.363 956.285 633.363L958.992 633.398L959.238 632.098C959.309 631.641 959.309 631.213 959.238 630.814C959.004 629.549 958.166 628.898 956.725 628.863C955.834 628.84 955.049 629.068 954.369 629.549C953.701 630.018 953.291 630.65 953.139 631.447L948.973 631.482C949.055 630.311 949.471 629.285 950.221 628.406C950.971 627.516 951.967 626.824 953.209 626.332C954.451 625.84 955.764 625.605 957.146 625.629C959.221 625.676 960.838 626.303 961.998 627.51C963.158 628.705 963.639 630.258 963.439 632.168L961.98 641.08L961.84 642.662C961.805 643.354 961.893 644.027 962.104 644.684L962.086 645H957.955ZM953.666 641.941C954.545 641.965 955.359 641.766 956.109 641.344C956.859 640.91 957.498 640.354 958.025 639.674L958.676 636.07L956.689 636.053C955.119 636.053 953.865 636.352 952.928 636.949C951.99 637.535 951.457 638.344 951.328 639.375C951.234 640.16 951.404 640.781 951.838 641.238C952.283 641.684 952.893 641.918 953.666 641.941ZM981.422 645H977.238L979.945 629.426H972.791L970.084 645H965.9L969.205 625.98H984.727L981.422 645ZM994.008 637.477H991.793L990.475 645H986.309L989.613 625.98H993.779L992.461 633.574H994.113L1000.53 625.98H1005.98L997.523 635.297L1002.94 645H997.822L994.008 637.477ZM1020.2 625.98H1024.49L1021.18 645H1017.02L1019.2 632.59L1009.95 645H1005.66L1008.97 625.98H1013.13L1010.95 638.391L1020.2 625.98ZM1035.12 642.943C1035.12 642.229 1035.35 641.648 1035.79 641.203C1036.25 640.746 1036.83 640.506 1037.53 640.482C1038.22 640.459 1038.8 640.67 1039.25 641.115C1039.72 641.549 1039.96 642.111 1039.96 642.803C1039.96 643.482 1039.73 644.051 1039.29 644.508C1038.84 644.953 1038.26 645.188 1037.55 645.211C1036.86 645.234 1036.28 645.029 1035.81 644.596C1035.35 644.162 1035.12 643.611 1035.12 642.943ZM1037.69 628.02C1037.69 627.305 1037.91 626.725 1038.36 626.279C1038.81 625.822 1039.39 625.582 1040.1 625.559C1040.79 625.535 1041.36 625.746 1041.82 626.191C1042.29 626.625 1042.52 627.188 1042.52 627.879C1042.52 628.559 1042.3 629.127 1041.86 629.584C1041.41 630.029 1040.83 630.264 1040.12 630.287C1039.42 630.311 1038.84 630.105 1038.38 629.672C1037.92 629.238 1037.69 628.688 1037.69 628.02ZM1046.07 634.664C1046.7 630.387 1047.98 626.584 1049.94 623.256C1051.91 619.916 1054.35 617.602 1057.25 616.312L1057.89 618.844C1053.88 621.938 1051.28 626.789 1050.08 633.398C1049.65 635.812 1049.43 638.139 1049.41 640.377C1049.39 642.756 1049.67 644.83 1050.26 646.6C1050.84 648.381 1051.71 649.781 1052.86 650.801L1051.88 653.139C1049.87 651.896 1048.33 649.963 1047.25 647.338C1046.19 644.713 1045.7 641.654 1045.79 638.162C1045.82 637.037 1045.9 635.971 1046.04 634.963L1046.07 634.664Z" fill="black"/>
</svg>
